<svg xmlns="http://www.w3.org/2000/svg" width="34" height="34" fill="none"><path stroke="#2DC18C" stroke-linecap="round" stroke-linejoin="round" stroke-width="2.5" d="M17.703 3.534a5.238 5.238 0 11-7.408 7.408 5.238 5.238 0 017.408-7.408zM20.544 18.194c-1.948-.778-4.234-1.207-6.544-1.207-6.072 0-12 2.95-12 7.488v1.5a1.5 1.5 0 001.5 1.5h14.12"/><path stroke="#2DC18C" stroke-linecap="round" stroke-linejoin="round" stroke-width="2.5" d="M24.5 32a7.5 7.5 0 01-7.5-7.5c0-4.056 3.45-7.505 7.506-7.5a7.5 7.5 0 01-.006 15zM24.5 21.5v6M27.499 24.5h-6"/></svg>