<svg xmlns="http://www.w3.org/2000/svg" width="48" height="48" fill="none"><path stroke="#24273F" stroke-linecap="round" stroke-linejoin="round" stroke-width="3.059" d="M12.01 6h18.344c1.06 0 2.078.423 2.828 1.173l5.656 5.656a4.001 4.001 0 011.172 2.828V38c0 2.21-1.79 4-4 4h-24c-2.21 0-4-1.79-4-4V10c0-2.21 1.79-4 4-4z"/><path stroke="#2DC18C" stroke-linecap="round" stroke-linejoin="round" stroke-width="2.549" d="M24.359 16.36l.162-2.397M23.34 30.83l-.163 2.396M19.302 28.772c.554 1.065 1.57 1.849 2.855 1.943l1.203.088 1.433.106a3.36 3.36 0 003.603-3.129 3.409 3.409 0 00-2.335-3.461l-4.431-1.462a3.413 3.413 0 01-2.336-3.462 3.36 3.36 0 013.603-3.128l1.433.105 1.203.088c1.28.094 2.294.876 2.852 1.935"/></svg>