<svg xmlns="http://www.w3.org/2000/svg" width="949" height="1221" fill="none"><path fill="#FEFEFE" d="M458.275 28.829c-.645-11.075 5.104-20.587 15.086-25.25 2.139-1 5.129-.534 6.37-3.253l6.099-.031c.235.388.425 1.052.755 1.132 13.232 2.923 16.369 5.145 22.837 16.252 136.14 13.733 246.319 72.954 330.179 178.169 16.999.138 26.474 5.804 30.254 18.107 3.358 10.966-.757 22.312-10.356 28.657-9.409 6.192-22.53 5.723-31.334-1.103-10.129-7.855-12.343-19.49-6.007-34.373-79.418-99.323-183.706-155.605-311.653-168.99-3.799 1.277-4.337 3.704-5.792 5.311-7.121 7.943-18.191 11.04-28.336 7.812-10.393-3.289-17.493-12.124-18.102-22.44zM110.949 640.457c7.798 8.653 20.533 11.279 31.224 6.391 10.666-4.871 16.28-15.365 14.694-27.53-1.515-11.64-10.84-19.387-26.544-21.745-51.193-118.255-32.08-263.557 61.146-369.277 93.716-106.306 228.304-135.98 326.594-121.215 7.292 14.507 17.155 20.644 30.072 18.682 11.014-1.677 20.245-10.494 21.905-20.896 1.792-11.405-3.68-22.203-13.835-27.308-11.405-5.718-23.182-2.861-34.132 7.94-146.558-12.352-267.348 33.749-359.888 145.723-86.861 116.074-102.4 241.342-51.687 375.734-7.884 12.498-7.841 24.264.451 33.501zm234.123-49.385c14.984 14.026 32.803 23.782 50.849 33.504 84.067 45.344 167.947 91.017 251.881 136.549 2.399 1.291 4.579 3.037 7.945 3.661-.279-82.552-.534-164.657-.804-246.612 13.682-9.538 18.198-19.462 14.401-31.328-3.454-10.835-12.784-17.833-24.204-18.108-11.894-.303-22.177 6.25-25.972 16.902-4.107 11.59-.794 23.471 14.543 33.017.228 70.365.445 140.772.684 211.912-3.339-1.742-5.959-3.109-8.57-4.519-77.999-42.23-156.034-84.403-234.013-126.716-34.863-18.925-59.189-46.832-73.333-82.971-5.692-14.535-9.194-29.638-9.683-45.107 14.116-8.704 18.907-18.407 15.409-30.884-3.043-10.91-12.857-18.534-24.438-18.959-11.431-.41-22.167 6.672-25.913 17.115-4.365 12.211.083 22.824 13.579 32.119.476 3.579.956 7.225 1.386 10.903 5.137 43.114 24.163 79.475 56.253 109.522zm596.206 397.173c-10.355-11.196-28.815-11.251-39.237-.101-11.954 12.806-8.559 28.086 9.353 41.826.174 51.9.338 103.83.515 156.72-124.643-67.68-248.537-134.92-372.08-201.992-.993-15.548-8.092-25.023-20.247-27.794-11.634-2.665-23.447 2.345-29.301 12.384-5.65 9.735-4.134 22.014 3.742 30.157 8.884 9.225 20.923 10.295 35.832 3.015 133.354 72.43 266.889 144.92 400.398 217.42.424.24.955.3 1.46.38.232.03.478-.08.699-.18.22-.1.435-.27.614-.38-.221-63.37-.4-126.74-.631-190.07 17.484-13.37 20.749-28.56 8.883-41.385zM232.691 760.461c20.962 16.059 44.451 28.676 67.977 41.413 139.384 75.418 278.6 151.082 417.878 226.676 14.593 7.91 29.151 15.87 43.547 23.69 1.533 16.03 8.444 25.2 20.82 27.87 11.524 2.48 22.907-2.19 28.805-11.87 5.933-9.73 4.715-21.7-3.114-30.22-8.747-9.53-19.741-10.67-36.459-3.59-2.455-1.33-5.082-2.77-7.708-4.2-78.388-42.526-156.766-85.091-235.179-127.599-79.287-42.963-158.625-85.896-237.937-128.843-15.963-8.663-31.203-18.34-45.416-29.111.605-22.502-9.275-34.134-27.868-33.183-15.252.773-26.091 13.85-24.204 29.132 2.031 16.507 16.269 23.889 38.858 19.835zm16.336-74.149c23.873 22.503 51.601 39.575 80.707 55.087 67.843 36.133 135.183 73.179 202.695 109.87 1.721.928 3.8 1.457 4.863 3.217 1.172 15.261 8.28 24.518 21.022 27.387 11.026 2.473 22.935-2.669 28.642-12.368 5.727-9.783 4.328-21.814-3.54-30.176-8.755-9.306-20.651-10.424-36.019-3.151-20.465-11.107-40.595-22.066-60.751-33.01-50.948-27.618-101.582-55.82-152.952-82.68-69.967-36.563-118.871-90.411-145.782-162.971-8.794-23.739-13.907-48.256-15.853-73.234 13.777-10.022 18.017-20.344 13.544-32.398-4.021-10.84-13.784-17.216-25.869-16.904-11.251.295-21.105 7.615-24.294 18.106-3.798 12.393 1.17 22.472 15.744 31.92.468 4.613.859 9.274 1.45 13.918.591 4.643 1.316 9.275 2.109 13.902 11.935 67.799 43.494 125.594 94.284 173.485zm5.931-72.104c8.41 7.105 20.887 8.255 30.55 2.83 10.021-5.647 15.21-17.016 12.647-27.831-2.953-12.565-12.48-19.016-29.74-20.165-42.604-72.225-39.765-173.821 22.893-249.006 64.093-76.887 162.871-95.349 233.592-76.62 5.477 15.518 13.382 22.081 26.571 22.083 11.856.006 21.79-7.007 25.25-17.807 3.374-10.534-.42-21.87-9.447-28.309-10.673-7.591-21.917-6.412-36.128 3.416-99.239-18.549-183.38 6.09-251.399 79.04-71.064 86.763-78.668 179.894-29.926 279.201-6.297 13.437-4.609 24.899 5.137 33.168zm164.499 288.357c-8.313-1.942-16.019.145-23.014 4.281-3.712-2.009-7.015-3.808-10.344-5.592-39.219-21.246-78.119-43.009-117.698-63.571-87.905-45.642-152.958-112.122-195.03-199.699-15.076-31.339-25.72-64.132-32.088-97.997 12.317-12.319 15.172-23.421 9.095-34.521-5.262-9.578-16.551-15.049-27.493-13.31-11.024 1.718-20.05 10.409-21.859 20.973-2.212 12.979 3.835 22.285 19.435 29.823.451 1.852.91 3.772 1.35 5.667.123.493.23.959.336 1.427 29.954 132.629 105.554 232.85 226.906 300.313 33.01 18.362 66.528 35.877 99.771 53.811 12.613 6.786 25.145 13.728 37.469 20.443 1.172 15.261 7.899 24.645 19.35 27.53 11.631 2.951 23.709-1.619 29.839-11.259 5.784-9.108 4.927-21.579-2.091-29.755-3.713-4.282-8.37-7.271-13.934-8.564zM873.63 337.721c4.536 7.504 11.975 10.909 20.088 12.869 9.102 33.21 14.345 66.491 14.738 100.418.167 14.531-.134 29.102-.074 43.628.381 87.782.777 175.59 1.251 263.35.164 29.593.555 59.153.734 88.772.029 7.086.531 14.2-.287 20.992-13.364 8.844-18.039 18.972-14.48 30.737 3.433 11.38 13.254 18.609 25.377 18.593 11.424-.011 21.452-6.87 25.049-17.151 4.277-12.298-.35-22.801-14.943-32.805-.034-11.807-.059-23.371-.101-34.96-.467-97.639-.883-195.309-1.457-292.953-.13-22.439-.594-44.849-.024-67.294.825-32.902-1.962-65.496-8.803-97.756-2.126-10.091-4.546-20.143-6.783-29.952 10.202-12.329 11.69-23.191 4.755-33.442-6.456-9.517-17.949-13.868-29.242-11.024-10.579 2.687-18.778 12.395-19.443 23.106-.386 5.353.876 10.293 3.645 14.872zm-45.696 734.019c3.051 10.51 12.859 18.07 23.982 18.49 11.539.42 21.767-5.82 25.891-15.93 2.011-4.93 2.478-9.98 1.31-15.23-1.992-8.82-8.223-14.35-16.19-18.92-.543-171.015-1.125-341.859-1.693-512.854 13.574-9.543 17.992-19.513 13.941-31.684-3.583-10.756-13.842-18.069-25.27-17.949-11.335.098-21.774 7.672-25.101 18.284-3.82 12.123.708 21.94 14.94 31.812 1.024 170.643 2.08 341.515 3.119 512.821-13.958 9.32-18.487 18.93-14.929 31.16zM790.84 428.126c-11.784-89.133-53.083-162.34-127.655-216.238-74.5-53.836-158.547-71.63-250.508-57.193-12.284-10.896-23.379-13.077-34.678-6.926-9.433 5.106-15.001 16.141-13.277 26.266 1.966 11.397 11.041 20.009 22.966 21.642 5.179.714 10.103-.156 14.807-2.381 8.032-3.816 12.3-10.604 14.826-18.235 173.96-31.681 336.838 92.084 351.85 254.741-12.802 9.599-16.754 19.992-12.174 31.873 3.991 10.326 14.303 17.145 25.347 16.8 11.755-.393 22.293-8.561 25.021-19.407 3.097-12.388-2.194-22.303-16.525-30.942zM44.899 406.691c6.506-4.19 10.357-10.152 11.583-17.55 1.722-10.474-3.216-18.583-10.673-25.102C84.577 197.205 224.788 80.024 368.926 49.043c12.136 11.058 23.479 13.299 34.961 6.929 10.104-5.626 15.305-17.038 12.695-27.755-2.774-11.396-12.415-19.374-24.292-20.113-12.526-.766-22.09 6.161-27.327 19.372C187.105 76.62 73.358 186.789 23.946 360.044c-18.302 7.947-25.182 23.094-16.658 37.835 7.414 12.904 24.932 16.985 37.61 8.812zm779.107 19.633c5.363 9.977 17.014 15.58 28.019 13.482 11.284-2.162 20.011-10.882 21.325-21.39 1.699-13.479-3.999-22.148-19.089-29.076-25.17-112.208-87.749-197.405-188.504-256.044-2.95-20.239-15.527-30.456-32.909-26.806-14.366 2.997-23.46 18.088-19.277 31.99 5.118 17.019 20.635 21.979 43.431 13.321 94.202 55.362 152.873 135.547 176.479 239.874-13.139 13.288-15.69 23.03-9.475 34.649zm-479.598-94.489c-15.586-2.395-26.656 2.158-32.311 13.281-4.905 9.631-2.861 21.797 4.919 29.432 8.133 7.985 20.637 9.936 30.914 4.771 4.846-2.455 8.701-5.969 11.27-10.679 4.051-7.435 3.323-15.155 1.129-22.682 77.656-70.971 201.77-49.149 250.814 35.124-7.906 13.684-7.548 24.865 1.155 34.026 7.743 8.155 20.363 10.531 30.757 5.792 10.419-4.755 16.356-15.413 14.895-26.731-1.556-12.29-10.389-19.63-27.544-22.585-59.716-97.796-197.214-119.713-285.998-39.749zm99.18 41.957c12.5 12.183 23.104 14.773 35.002 8.857 10.139-5.044 15.875-15.685 14.208-26.414-1.663-10.838-10.494-19.742-21.266-21.447-13.911-2.185-22.616 3.076-31.407 18.904-1.9.639-3.825 1.293-5.741 1.906-46.96 15.459-78.731 57.675-78.061 105.675.612 44.413 21.724 77.534 61.821 99.127 13.037 7.021 26.11 13.985 38.846 20.801 1.362 15.926 7.937 24.765 20.248 27.794 11.388 2.782 22.854-1.696 28.999-11.31 5.968-9.327 5.178-21.165-1.992-29.709-8.416-10.084-19.202-11.461-37.399-4.68-13.016-6.928-26.033-14.033-39.253-20.834-39.791-20.503-59.474-64.061-46.944-105.992 9.473-31.628 31.081-52.198 62.939-62.678zm-42.849 329.614c74.578 40.469 149.342 81.071 223.724 121.447 1.33 15.873 8.227 25.011 20.474 27.76 11.521 2.593 22.975-2.019 28.92-11.616 6.097-9.869 4.747-22.285-3.364-30.817-8.817-9.233-19.955-10.321-36.06-3.161-74.283-40.33-148.862-80.798-223.781-121.482-1.47-15.93-8.104-24.981-20.053-27.701-11.742-2.67-23.008 1.613-29.098 11.087-6.151 9.547-5.245 21.81 2.218 30.316 8.528 9.801 19.683 11.093 37.02 4.167zm227.763-447.08c-15.155-.636-27.848 11.701-27.312 26.609.268 7.542 3.467 13.881 9.367 18.697 8.304 6.814 17.935 7.269 27.518 4.272 31.921 29.476 57.904 82.291 62.854 125.911 3.373 29.781.146 59.583 1.791 89.008-14.208 9.542-18.885 19.957-14.874 32.118 3.378 10.242 13.518 17.593 24.64 17.839 11.703.278 22.194-7.149 25.774-18.272 3.873-11.979-.769-22.045-14.743-31.721-.057-15.629-.61-31.378-.03-47.116 1.112-31.09-2.78-61.439-13.079-90.928-12.114-34.585-31.317-65.012-57.455-91.554 2.648-20.636-7.025-34.136-24.451-34.863zm28.144 678.896c8.027 1.586 15.529-.198 22.246-4.446 38.501 20.872 76.594 41.533 115.463 62.605-.145-42.534-.269-83.696-.411-125.237 13.744-8.972 18.408-19.058 14.819-31.337-3.061-10.474-13.569-18.201-24.984-18.409-11.065-.21-21.339 6.764-25.203 17.068-4.576 12.27-.273 22.297 14.306 33.092.098 29.775.202 59.618.286 90.184-28.622-15.526-56.485-30.668-84.079-45.656-1.144-15.563-8.021-24.962-20-27.733-11.32-2.611-23.074 1.973-29.087 11.399-5.967 9.328-4.871 22.078 2.512 30.277 3.8 4.192 8.502 7.083 14.132 8.193zM279.491 237.246c17.046 4.869 27.791 2.399 35.238-7.912 6.567-9.093 6.338-21.632-.555-30.417-6.981-8.873-19.234-12.329-30.026-8.481-12.126 4.317-17.655 13.906-17.085 30.497-43.028 34.879-74.645 77.64-95.034 127.862-15.758 4.069-23.421 11.813-24.336 24.205-.83 11.31 5.822 21.558 16.684 25.623 10.574 3.994 22.444 1.114 29.747-7.225 3.527-4.057 5.669-8.717 6.221-14.03.917-8.664-2.962-15.72-8.489-22.186 19.216-46.694 48.306-86.014 87.635-117.936zm271.417 379.531c3.467 10.507 14.072 17.928 25.432 17.813 11.752-.107 22.21-7.941 25.303-18.941 3.333-11.823-1.716-22.385-15.298-30.775.519-43.298-1.561-86.415.125-129.296 11.362-9.421 14.769-20.366 9.972-31.617-4.476-10.488-15.473-16.637-27.643-15.419-11.117 1.1-19.952 8.999-22.472 20.072-2.964 13.016 2.323 21.762 18.731 30.754.129 41.869.258 83.738.411 125.414-13.877 9.623-18.545 19.995-14.561 31.995zm188.254 44.326c-2.786-10.892-13.879-18.828-25.411-18.821-11.331-.011-21.724 7.464-25.22 18.144-3.94 11.984 1.002 22.718 14.858 31.792.127 40.236.264 80.608.407 120.87-13.16 8.541-17.977 18.899-14.433 30.638 3.39 11.194 13.641 18.725 25.43 18.737 11.382-.021 22.046-7.627 25.241-18.05 3.823-12.409-1.033-22.77-14.95-31.771-.125-40.06-.246-80.229-.403-120.979 13.951-7.466 17.373-19.201 14.481-30.56zM532.083 502.327c3.79-11.999-.921-22.413-14.823-31.565 1.557-13.073-.245-25.246-8.394-35.992-8.325-10.921-19.538-17.078-33.36-18.358-22.847-2.074-47.229 11.93-51.111 42.917-15.742 13.578-10.896 32.008-.76 40.108 11.784 9.428 29.525 7.475 38.39-4.562 4.489-6.072 6.024-12.843 4.427-20.312-2.3-10.729-9.805-16.686-19.721-20.233 5.612-14.045 18.178-20.657 31.606-17.003 14.063 3.832 20.249 15.753 17.488 33.758-13.567 9.148-18.284 19.728-14.192 31.732 3.644 10.683 13.854 17.742 25.457 17.62 11.809-.071 21.535-7.134 24.993-18.11zm275.097 80.996c-3.548-10.99-14.304-18.601-25.807-18.257-11.37.333-21.883 8.13-24.799 18.666-2.766 9.91-.496 22.86 15.077 31.053.105 31.299.207 62.067.312 92.726-13.017 8.311-17.998 18.806-14.712 30.525 2.979 10.63 13.104 18.418 24.547 18.963 10.969.518 21.444-6.296 25.603-16.462 2.133-5.258 2.23-10.681.882-15.995-2.064-8.069-7.867-13.477-15.035-17.191-.095-31.34-.211-62.135-.316-92.795 13.263-8.604 18.092-19.289 14.248-31.233z" opacity=".015"/></svg>