<svg width="558" height="478" viewBox="0 0 558 478" fill="none" xmlns="http://www.w3.org/2000/svg">
<path d="M423.346 56.8223C419.325 74.3178 460.573 76.5679 477.576 76.7543C482.289 76.8076 486.976 76.3549 491.596 75.4229C505.976 72.507 537.439 64.851 533.032 54.439C527.333 41.0045 510.237 50.378 510.237 50.378C510.237 50.378 512.381 40.2323 483.275 33.535C454.169 26.8378 454.289 49.1531 454.289 49.1531C454.289 49.1531 428.392 34.8532 423.346 56.8223Z" fill="url(#paint0_linear)"/>
<path d="M63.1893 24.5411C59.1683 42.0365 100.417 44.2867 117.42 44.4731C122.133 44.5263 126.82 44.0736 131.44 43.1416C145.82 40.2257 177.282 32.5698 172.875 22.1578C167.177 8.72328 150.081 18.0968 150.081 18.0968C150.081 18.0968 152.224 7.95104 123.119 1.25378C94.0127 -5.44349 94.1326 16.8718 94.1326 16.8718C94.1326 16.8718 68.2356 2.57192 63.1893 24.5411Z" fill="url(#paint1_linear)"/>
<path d="M158.293 151.471C158.293 151.471 143.78 64.1401 80.4691 50C18.5561 142.843 110.028 203.491 110.028 203.491L158.293 151.471Z" fill="#2DC18C"/>
<path d="M80.4668 50C80.2538 50.3196 80.0408 50.6391 79.8277 50.972L122.102 146.331L59.949 127.132C60.0555 127.851 60.1753 128.556 60.2952 129.275L123.154 148.688L135.35 176.209L136.788 174.665L112.475 119.809L132.66 87.9467C132.261 87.3609 131.861 86.7883 131.462 86.2158L111.543 117.665L81.6652 50.2929C81.2657 50.1997 80.8796 50.0932 80.4668 50Z" fill="#FEFEFE"/>
<path d="M128.964 144.813C128.964 144.813 63.2432 85.8693 4.76535 106.826C-7.57732 180.51 72.4969 206.766 72.4969 206.766L149.469 200.801L128.964 144.813Z" fill="#2D46C1"/>
<path d="M73.5329 111.075L73.6927 150.22L6.16082 106.375C5.69481 106.535 5.2288 106.681 4.76279 106.841C4.70953 107.134 4.6829 107.414 4.62964 107.706L40.8055 131.193L5.78801 140.993C5.8679 141.326 5.9611 141.659 6.05431 141.992L6.29397 142.87L42.9758 132.605L103.251 171.75L42.3367 190.923C43.0157 191.402 43.6815 191.868 44.3605 192.321L105.368 173.121L148.175 200.922L149.48 200.816L148.814 199.018L75.6499 151.498L75.4901 111.861C74.8377 111.594 74.1853 111.328 73.5329 111.075Z" fill="#2DC18C"/>
<path d="M160.799 201.256C160.799 201.256 92.453 173.7 58.5922 209.788C84.8237 307.383 210.806 280.904 210.806 280.904L160.799 201.256Z" fill="#FFA235"/>
<path d="M58.5885 209.801C58.6923 210.175 58.7961 210.549 58.8999 210.923L154.053 240.999L108.934 271.239C109.617 271.566 110.304 271.88 111.003 272.198L156.428 241.752L193.585 253.503L191.981 250.96L119.621 228.082L100.385 191.531C99.6919 191.588 98.9828 191.654 98.2866 191.724L116.98 227.242L59.328 209.024C59.1053 209.281 58.844 209.526 58.5885 209.801Z" fill="white"/>
<path d="M404.099 197.186C404.099 197.186 414.471 109.269 477.023 92.1465C543.263 181.954 454.761 246.876 454.761 246.876L404.099 197.186Z" fill="#FFA235"/>
<path d="M477.025 92.1465C477.252 92.4527 477.478 92.7723 477.704 93.0785L439.997 190.329L501.178 168.213C501.112 168.932 501.018 169.651 500.938 170.37L439.065 192.739L428.187 220.806L426.683 219.328L448.372 163.38L426.709 132.516C427.082 131.917 427.455 131.318 427.828 130.732L449.224 161.209L475.867 92.506C476.24 92.3728 476.626 92.253 477.025 92.1465Z" fill="white"/>
<path d="M433.075 189.157C433.075 189.157 495.933 127.178 555.343 145.339C571.161 218.356 492.418 248.367 492.418 248.367L415.247 246.051L433.075 189.157Z" fill="#2DC18C"/>
<path d="M486.853 152.821L488.558 191.926L553.946 144.926C554.412 145.059 554.891 145.179 555.357 145.325C555.424 145.618 555.464 145.898 555.53 146.177L520.513 171.355L555.956 179.491C555.89 179.823 555.81 180.156 555.743 180.502L555.544 181.395L518.422 172.873L460.064 214.828L521.818 231.085C521.165 231.591 520.513 232.097 519.874 232.576L458.027 216.292L416.592 246.077L415.287 246.037L415.86 244.213L486.694 193.285L484.976 153.687C485.575 153.407 486.214 153.114 486.853 152.821Z" fill="#FEFEFE"/>
<path d="M437.106 231.205C437.106 231.205 509.844 219.408 534.902 262.068C487.795 351.476 370.746 297.858 370.746 297.858L437.106 231.205Z" fill="#2D46C1"/>
<path d="M534.903 262.067C534.717 262.414 534.53 262.746 534.357 263.093L434.91 271.441L472.244 310.892C471.499 311.065 470.767 311.212 470.021 311.372L432.42 271.654L393.582 274.916L395.699 272.786L471.326 266.435L498.141 235.025C498.807 235.238 499.473 235.451 500.139 235.678L474.069 266.195L534.317 261.135C534.517 261.455 534.717 261.761 534.903 262.067Z" fill="white"/>
<path d="M105.581 74.5987L104.915 407.892C104.902 416.234 113.351 423 123.785 423H443.313C453.681 423 462.116 416.309 462.183 408.019L464.915 74.1831C464.981 65.7978 456.492 58.9787 446.004 59L124.398 59.5328C114.017 59.5541 105.595 66.2879 105.581 74.5987Z" fill="#E0F0EB"/>
<path d="M119.58 76.5609L118.915 410H448.162L450.915 76L119.58 76.5609Z" fill="#F7FDFB"/>
<path d="M188.941 172.504C187.663 172.504 186.585 172.265 185.707 171.787C184.829 171.298 184.162 170.603 183.706 169.703C183.261 168.803 183.039 167.73 183.039 166.485C183.039 165.252 183.267 164.185 183.723 163.284C184.178 162.373 184.84 161.673 185.707 161.184C186.573 160.695 187.613 160.45 188.824 160.45C189.658 160.45 190.43 160.573 191.141 160.817C191.853 161.062 192.447 161.412 192.925 161.867L192.308 163.218C191.775 162.773 191.23 162.456 190.675 162.267C190.119 162.067 189.502 161.967 188.824 161.967C187.524 161.967 186.535 162.362 185.857 163.151C185.179 163.929 184.84 165.04 184.84 166.485C184.84 167.963 185.184 169.086 185.873 169.853C186.573 170.62 187.618 171.003 189.007 171.003C189.852 171.003 190.691 170.864 191.525 170.586V167.436H188.657V166.135H192.975V171.67C192.475 171.915 191.853 172.115 191.108 172.27C190.374 172.426 189.652 172.504 188.941 172.504ZM198.101 172.504C197.211 172.504 196.545 172.253 196.1 171.753C195.667 171.253 195.45 170.52 195.45 169.553V160.6H197.134V169.453C197.134 170.553 197.584 171.103 198.484 171.103C198.617 171.103 198.74 171.098 198.851 171.087C198.973 171.075 199.095 171.053 199.218 171.02L199.184 172.37C198.806 172.459 198.445 172.504 198.101 172.504ZM203.999 172.504C203.176 172.504 202.465 172.331 201.865 171.987C201.264 171.642 200.798 171.159 200.464 170.536C200.142 169.903 199.981 169.153 199.981 168.286C199.981 167.419 200.142 166.674 200.464 166.052C200.798 165.418 201.264 164.929 201.865 164.585C202.465 164.24 203.176 164.068 203.999 164.068C204.799 164.068 205.499 164.24 206.099 164.585C206.699 164.929 207.166 165.418 207.499 166.052C207.833 166.674 208 167.419 208 168.286C208 169.153 207.833 169.903 207.499 170.536C207.166 171.159 206.699 171.642 206.099 171.987C205.499 172.331 204.799 172.504 203.999 172.504ZM203.999 171.203C204.688 171.203 205.243 170.953 205.666 170.453C206.088 169.953 206.299 169.23 206.299 168.286C206.299 167.341 206.088 166.624 205.666 166.135C205.243 165.635 204.688 165.385 203.999 165.385C203.298 165.385 202.737 165.635 202.315 166.135C201.892 166.624 201.681 167.341 201.681 168.286C201.681 169.23 201.892 169.953 202.315 170.453C202.737 170.953 203.298 171.203 203.999 171.203ZM214.258 172.504C213.636 172.504 213.086 172.365 212.608 172.087C212.13 171.809 211.774 171.437 211.541 170.97V172.354H209.891V160.6H211.574V165.535C211.819 165.09 212.175 164.735 212.641 164.468C213.119 164.201 213.658 164.068 214.258 164.068C214.981 164.068 215.609 164.24 216.142 164.585C216.687 164.929 217.104 165.418 217.393 166.052C217.693 166.674 217.843 167.419 217.843 168.286C217.843 169.153 217.693 169.903 217.393 170.536C217.104 171.17 216.687 171.659 216.142 172.003C215.609 172.337 214.981 172.504 214.258 172.504ZM213.842 171.203C214.542 171.203 215.098 170.953 215.509 170.453C215.931 169.953 216.142 169.23 216.142 168.286C216.142 167.341 215.931 166.624 215.509 166.135C215.098 165.635 214.542 165.385 213.842 165.385C213.141 165.385 212.58 165.635 212.158 166.135C211.747 166.624 211.541 167.341 211.541 168.286C211.541 169.23 211.747 169.953 212.158 170.453C212.58 170.953 213.141 171.203 213.842 171.203ZM222.341 172.504C221.774 172.504 221.268 172.392 220.824 172.17C220.379 171.948 220.024 171.648 219.757 171.27C219.501 170.892 219.373 170.464 219.373 169.986C219.373 169.386 219.524 168.914 219.824 168.569C220.135 168.225 220.64 167.975 221.341 167.819C222.052 167.663 223.008 167.586 224.208 167.586H224.775V167.152C224.775 166.519 224.642 166.063 224.375 165.785C224.108 165.507 223.669 165.368 223.058 165.368C222.591 165.368 222.124 165.441 221.657 165.585C221.191 165.718 220.713 165.935 220.224 166.235L219.707 165.052C220.129 164.751 220.657 164.513 221.291 164.335C221.924 164.157 222.53 164.068 223.108 164.068C224.219 164.068 225.042 164.335 225.575 164.868C226.109 165.391 226.375 166.213 226.375 167.336V172.354H224.792V171.003C224.592 171.47 224.28 171.837 223.858 172.103C223.436 172.37 222.93 172.504 222.341 172.504ZM222.674 171.303C223.275 171.303 223.775 171.092 224.175 170.67C224.575 170.247 224.775 169.714 224.775 169.069V168.619H224.225C223.413 168.619 222.774 168.658 222.308 168.736C221.852 168.814 221.524 168.947 221.324 169.136C221.135 169.314 221.041 169.564 221.041 169.886C221.041 170.309 221.185 170.653 221.474 170.92C221.763 171.175 222.163 171.303 222.674 171.303ZM231.345 172.504C230.456 172.504 229.789 172.253 229.345 171.753C228.911 171.253 228.694 170.52 228.694 169.553V160.6H230.378V169.453C230.378 170.553 230.828 171.103 231.729 171.103C231.862 171.103 231.984 171.098 232.095 171.087C232.218 171.075 232.34 171.053 232.462 171.02L232.429 172.37C232.051 172.459 231.69 172.504 231.345 172.504ZM243.621 172.504C242.432 172.504 241.415 172.259 240.57 171.77C239.726 171.281 239.075 170.586 238.62 169.686C238.175 168.775 237.953 167.702 237.953 166.469C237.953 165.235 238.175 164.168 238.62 163.268C239.075 162.368 239.726 161.673 240.57 161.184C241.415 160.695 242.432 160.45 243.621 160.45C244.421 160.45 245.166 160.578 245.855 160.834C246.555 161.078 247.139 161.434 247.605 161.901L247.005 163.284C246.494 162.829 245.966 162.501 245.422 162.301C244.888 162.09 244.305 161.984 243.671 161.984C242.404 161.984 241.437 162.373 240.77 163.151C240.103 163.929 239.77 165.035 239.77 166.469C239.77 167.902 240.103 169.014 240.77 169.803C241.437 170.581 242.404 170.97 243.671 170.97C244.305 170.97 244.888 170.87 245.422 170.67C245.966 170.459 246.494 170.125 247.005 169.669L247.605 171.053C247.139 171.509 246.555 171.864 245.855 172.12C245.166 172.376 244.421 172.504 243.621 172.504ZM252.384 172.504C251.561 172.504 250.85 172.331 250.25 171.987C249.65 171.642 249.183 171.159 248.85 170.536C248.527 169.903 248.366 169.153 248.366 168.286C248.366 167.419 248.527 166.674 248.85 166.052C249.183 165.418 249.65 164.929 250.25 164.585C250.85 164.24 251.561 164.068 252.384 164.068C253.184 164.068 253.884 164.24 254.484 164.585C255.085 164.929 255.551 165.418 255.885 166.052C256.218 166.674 256.385 167.419 256.385 168.286C256.385 169.153 256.218 169.903 255.885 170.536C255.551 171.159 255.085 171.642 254.484 171.987C253.884 172.331 253.184 172.504 252.384 172.504ZM252.384 171.203C253.073 171.203 253.629 170.953 254.051 170.453C254.473 169.953 254.684 169.23 254.684 168.286C254.684 167.341 254.473 166.624 254.051 166.135C253.629 165.635 253.073 165.385 252.384 165.385C251.684 165.385 251.122 165.635 250.7 166.135C250.278 166.624 250.067 167.341 250.067 168.286C250.067 169.23 250.278 169.953 250.7 170.453C251.122 170.953 251.684 171.203 252.384 171.203ZM258.276 172.354V164.218H259.91V165.568C260.188 165.079 260.565 164.707 261.043 164.451C261.532 164.196 262.077 164.068 262.677 164.068C264.6 164.068 265.561 165.157 265.561 167.336V172.354H263.877V167.436C263.877 166.735 263.738 166.224 263.461 165.902C263.194 165.579 262.772 165.418 262.194 165.418C261.516 165.418 260.971 165.635 260.56 166.069C260.16 166.491 259.96 167.052 259.96 167.752V172.354H258.276ZM271.349 172.504C270.326 172.504 269.565 172.242 269.065 171.72C268.565 171.198 268.315 170.442 268.315 169.453V165.518H266.731V164.218H268.315V161.767H269.999V164.218H272.516V165.518H269.999V169.319C269.999 169.908 270.121 170.353 270.365 170.653C270.621 170.953 271.032 171.103 271.599 171.103C271.777 171.103 271.949 171.087 272.116 171.053C272.282 171.009 272.449 170.959 272.616 170.903L272.883 172.17C272.716 172.27 272.483 172.348 272.182 172.404C271.893 172.47 271.616 172.504 271.349 172.504ZM273.97 172.354V164.218H275.604V165.668C276.026 164.701 276.904 164.162 278.238 164.051L278.788 164.018L278.905 165.452L277.888 165.552C276.41 165.696 275.671 166.458 275.671 167.836V172.354H273.97ZM282.709 172.504C282.142 172.504 281.636 172.392 281.192 172.17C280.747 171.948 280.391 171.648 280.125 171.27C279.869 170.892 279.741 170.464 279.741 169.986C279.741 169.386 279.891 168.914 280.191 168.569C280.502 168.225 281.008 167.975 281.708 167.819C282.42 167.663 283.375 167.586 284.576 167.586H285.143V167.152C285.143 166.519 285.009 166.063 284.742 165.785C284.476 165.507 284.037 165.368 283.425 165.368C282.959 165.368 282.492 165.441 282.025 165.585C281.558 165.718 281.08 165.935 280.591 166.235L280.075 165.052C280.497 164.751 281.025 164.513 281.658 164.335C282.292 164.157 282.898 164.068 283.475 164.068C284.587 164.068 285.409 164.335 285.943 164.868C286.476 165.391 286.743 166.213 286.743 167.336V172.354H285.159V171.003C284.959 171.47 284.648 171.837 284.226 172.103C283.803 172.37 283.298 172.504 282.709 172.504ZM283.042 171.303C283.642 171.303 284.142 171.092 284.542 170.67C284.943 170.247 285.143 169.714 285.143 169.069V168.619H284.592C283.781 168.619 283.142 168.658 282.675 168.736C282.22 168.814 281.892 168.947 281.692 169.136C281.503 169.314 281.408 169.564 281.408 169.886C281.408 170.309 281.553 170.653 281.842 170.92C282.131 171.175 282.531 171.303 283.042 171.303ZM292.646 172.504C291.813 172.504 291.09 172.331 290.479 171.987C289.879 171.631 289.412 171.137 289.079 170.503C288.745 169.858 288.579 169.103 288.579 168.236C288.579 166.947 288.945 165.93 289.679 165.185C290.412 164.44 291.402 164.068 292.646 164.068C293.158 164.068 293.663 164.157 294.163 164.335C294.664 164.513 295.075 164.757 295.397 165.068L294.864 166.252C294.552 165.963 294.208 165.752 293.83 165.618C293.463 165.474 293.113 165.402 292.78 165.402C291.991 165.402 291.379 165.652 290.946 166.152C290.524 166.641 290.312 167.341 290.312 168.252C290.312 169.164 290.524 169.881 290.946 170.403C291.379 170.914 291.991 171.17 292.78 171.17C293.113 171.17 293.463 171.103 293.83 170.97C294.208 170.825 294.552 170.609 294.864 170.32L295.397 171.52C295.075 171.82 294.658 172.059 294.147 172.237C293.647 172.415 293.147 172.504 292.646 172.504ZM300.328 172.504C299.305 172.504 298.544 172.242 298.044 171.72C297.544 171.198 297.294 170.442 297.294 169.453V165.518H295.71V164.218H297.294V161.767H298.978V164.218H301.495V165.518H298.978V169.319C298.978 169.908 299.1 170.353 299.344 170.653C299.6 170.953 300.011 171.103 300.578 171.103C300.756 171.103 300.928 171.087 301.095 171.053C301.262 171.009 301.428 170.959 301.595 170.903L301.862 172.17C301.695 172.27 301.462 172.348 301.162 172.404C300.873 172.47 300.595 172.504 300.328 172.504ZM306.402 172.504C305.58 172.504 304.868 172.331 304.268 171.987C303.668 171.642 303.201 171.159 302.868 170.536C302.546 169.903 302.384 169.153 302.384 168.286C302.384 167.419 302.546 166.674 302.868 166.052C303.201 165.418 303.668 164.929 304.268 164.585C304.868 164.24 305.58 164.068 306.402 164.068C307.202 164.068 307.903 164.24 308.503 164.585C309.103 164.929 309.57 165.418 309.903 166.052C310.236 166.674 310.403 167.419 310.403 168.286C310.403 169.153 310.236 169.903 309.903 170.536C309.57 171.159 309.103 171.642 308.503 171.987C307.903 172.331 307.202 172.504 306.402 172.504ZM306.402 171.203C307.091 171.203 307.647 170.953 308.069 170.453C308.492 169.953 308.703 169.23 308.703 168.286C308.703 167.341 308.492 166.624 308.069 166.135C307.647 165.635 307.091 165.385 306.402 165.385C305.702 165.385 305.141 165.635 304.718 166.135C304.296 166.624 304.085 167.341 304.085 168.286C304.085 169.23 304.296 169.953 304.718 170.453C305.141 170.953 305.702 171.203 306.402 171.203ZM312.294 172.354V164.218H313.928V165.668C314.35 164.701 315.228 164.162 316.562 164.051L317.112 164.018L317.229 165.452L316.212 165.552C314.734 165.696 313.995 166.458 313.995 167.836V172.354H312.294ZM323.076 172.354V160.6H327.944C329.211 160.6 330.189 160.917 330.878 161.551C331.567 162.173 331.912 163.051 331.912 164.185C331.912 165.329 331.567 166.219 330.878 166.852C330.189 167.474 329.211 167.786 327.944 167.786H324.81V172.354H323.076ZM324.81 166.402H327.694C329.383 166.402 330.228 165.663 330.228 164.185C330.228 162.718 329.383 161.984 327.694 161.984H324.81V166.402ZM335.783 172.504C335.216 172.504 334.71 172.392 334.266 172.17C333.821 171.948 333.465 171.648 333.199 171.27C332.943 170.892 332.815 170.464 332.815 169.986C332.815 169.386 332.965 168.914 333.265 168.569C333.576 168.225 334.082 167.975 334.782 167.819C335.494 167.663 336.449 167.586 337.65 167.586H338.217V167.152C338.217 166.519 338.083 166.063 337.816 165.785C337.55 165.507 337.111 165.368 336.499 165.368C336.033 165.368 335.566 165.441 335.099 165.585C334.632 165.718 334.154 165.935 333.665 166.235L333.149 165.052C333.571 164.751 334.099 164.513 334.732 164.335C335.366 164.157 335.972 164.068 336.549 164.068C337.661 164.068 338.483 164.335 339.017 164.868C339.55 165.391 339.817 166.213 339.817 167.336V172.354H338.233V171.003C338.033 171.47 337.722 171.837 337.3 172.103C336.877 172.37 336.372 172.504 335.783 172.504ZM336.116 171.303C336.716 171.303 337.216 171.092 337.616 170.67C338.017 170.247 338.217 169.714 338.217 169.069V168.619H337.666C336.855 168.619 336.216 168.658 335.749 168.736C335.294 168.814 334.966 168.947 334.766 169.136C334.577 169.314 334.482 169.564 334.482 169.886C334.482 170.309 334.627 170.653 334.916 170.92C335.205 171.175 335.605 171.303 336.116 171.303ZM342.888 175.354L344.339 172.137L340.938 164.218H342.738L345.239 170.403L347.773 164.218H349.507L344.655 175.354H342.888ZM350.749 172.354V164.218H352.383V165.535C352.627 165.068 352.966 164.707 353.4 164.451C353.833 164.196 354.339 164.068 354.917 164.068C356.162 164.068 356.968 164.613 357.334 165.702C357.59 165.19 357.957 164.79 358.435 164.501C358.913 164.212 359.457 164.068 360.068 164.068C361.891 164.068 362.802 165.157 362.802 167.336V172.354H361.119V167.419C361.119 166.73 360.996 166.224 360.752 165.902C360.518 165.579 360.129 165.418 359.585 165.418C358.974 165.418 358.49 165.635 358.135 166.069C357.779 166.491 357.601 167.069 357.601 167.802V172.354H355.917V167.419C355.917 166.73 355.801 166.224 355.567 165.902C355.334 165.579 354.945 165.418 354.4 165.418C353.789 165.418 353.305 165.635 352.95 166.069C352.605 166.491 352.433 167.069 352.433 167.802V172.354H350.749ZM368.974 172.504C367.641 172.504 366.59 172.131 365.823 171.387C365.057 170.631 364.673 169.603 364.673 168.302C364.673 167.469 364.84 166.735 365.173 166.102C365.518 165.457 365.99 164.957 366.59 164.601C367.19 164.246 367.88 164.068 368.657 164.068C369.78 164.068 370.664 164.429 371.308 165.152C371.953 165.863 372.275 166.846 372.275 168.102V168.669H366.307C366.429 170.359 367.324 171.203 368.991 171.203C369.458 171.203 369.913 171.131 370.358 170.986C370.814 170.842 371.242 170.603 371.642 170.27L372.142 171.437C371.775 171.77 371.303 172.031 370.725 172.22C370.147 172.409 369.563 172.504 368.974 172.504ZM368.724 165.252C368.024 165.252 367.468 165.468 367.057 165.902C366.646 166.335 366.396 166.913 366.307 167.636H370.858C370.825 166.88 370.625 166.296 370.258 165.885C369.891 165.463 369.38 165.252 368.724 165.252ZM374.111 172.354V164.218H375.745V165.568C376.022 165.079 376.4 164.707 376.878 164.451C377.367 164.196 377.912 164.068 378.512 164.068C380.435 164.068 381.396 165.157 381.396 167.336V172.354H379.712V167.436C379.712 166.735 379.573 166.224 379.295 165.902C379.029 165.579 378.606 165.418 378.028 165.418C377.351 165.418 376.806 165.635 376.395 166.069C375.995 166.491 375.795 167.052 375.795 167.752V172.354H374.111ZM387.184 172.504C386.161 172.504 385.4 172.242 384.9 171.72C384.4 171.198 384.15 170.442 384.15 169.453V165.518H382.566V164.218H384.15V161.767H385.833V164.218H388.351V165.518H385.833V169.319C385.833 169.908 385.956 170.353 386.2 170.653C386.456 170.953 386.867 171.103 387.434 171.103C387.612 171.103 387.784 171.087 387.951 171.053C388.117 171.009 388.284 170.959 388.451 170.903L388.718 172.17C388.551 172.27 388.317 172.348 388.017 172.404C387.728 172.47 387.451 172.504 387.184 172.504ZM392.656 172.504C391.989 172.504 391.367 172.42 390.789 172.253C390.211 172.076 389.727 171.831 389.338 171.52L389.822 170.386C390.233 170.675 390.683 170.898 391.172 171.053C391.672 171.209 392.172 171.287 392.672 171.287C393.262 171.287 393.706 171.181 394.006 170.97C394.306 170.759 394.456 170.475 394.456 170.12C394.456 169.831 394.356 169.608 394.156 169.453C393.956 169.286 393.656 169.158 393.256 169.069L391.672 168.753C390.272 168.464 389.572 167.741 389.572 166.585C389.572 165.818 389.877 165.207 390.489 164.751C391.1 164.296 391.9 164.068 392.889 164.068C393.456 164.068 393.995 164.151 394.506 164.318C395.029 164.485 395.462 164.735 395.807 165.068L395.323 166.202C394.99 165.913 394.606 165.691 394.173 165.535C393.739 165.379 393.312 165.302 392.889 165.302C392.311 165.302 391.872 165.413 391.572 165.635C391.272 165.846 391.122 166.135 391.122 166.502C391.122 167.058 391.489 167.413 392.222 167.569L393.806 167.886C394.529 168.03 395.073 168.275 395.44 168.619C395.818 168.964 396.007 169.431 396.007 170.02C396.007 170.798 395.701 171.409 395.09 171.853C394.479 172.287 393.667 172.504 392.656 172.504Z" fill="#878787"/>
<rect x="150.915" y="154" width="25.0067" height="25.0067" rx="5.20972" fill="#2DC18C"/>
<path d="M158.742 166.767L161.689 169.631L168.12 163.379" stroke="#FEFEFE" stroke-width="1.56292" stroke-linecap="round" stroke-linejoin="round"/>
<path d="M187.146 319.129V308.826H182.978V307.376H193.03V308.826H188.863V319.129H187.146ZM194.136 309.11V307.359H196.103V309.11H194.136ZM194.286 319.129V310.993H195.97V319.129H194.286ZM198.373 319.129V310.993H200.007V312.31C200.252 311.844 200.591 311.482 201.024 311.227C201.458 310.971 201.963 310.843 202.541 310.843C203.786 310.843 204.592 311.388 204.959 312.477C205.214 311.966 205.581 311.566 206.059 311.277C206.537 310.988 207.081 310.843 207.693 310.843C209.515 310.843 210.427 311.933 210.427 314.111V319.129H208.743V314.194C208.743 313.505 208.621 312.999 208.376 312.677C208.143 312.355 207.754 312.194 207.209 312.194C206.598 312.194 206.114 312.41 205.759 312.844C205.403 313.266 205.225 313.844 205.225 314.578V319.129H203.541V314.194C203.541 313.505 203.425 312.999 203.191 312.677C202.958 312.355 202.569 312.194 202.024 312.194C201.413 312.194 200.93 312.41 200.574 312.844C200.23 313.266 200.057 313.844 200.057 314.578V319.129H198.373ZM216.598 319.279C215.265 319.279 214.215 318.907 213.448 318.162C212.681 317.406 212.297 316.378 212.297 315.078C212.297 314.244 212.464 313.511 212.797 312.877C213.142 312.233 213.614 311.732 214.215 311.377C214.815 311.021 215.504 310.843 216.282 310.843C217.404 310.843 218.288 311.205 218.932 311.927C219.577 312.638 219.899 313.622 219.899 314.878V315.445H213.931C214.053 317.134 214.948 317.979 216.615 317.979C217.082 317.979 217.538 317.906 217.982 317.762C218.438 317.617 218.866 317.378 219.266 317.045L219.766 318.212C219.399 318.545 218.927 318.807 218.349 318.996C217.771 319.184 217.188 319.279 216.598 319.279ZM216.348 312.027C215.648 312.027 215.093 312.244 214.681 312.677C214.27 313.111 214.02 313.689 213.931 314.411H218.482C218.449 313.655 218.249 313.072 217.882 312.661C217.515 312.238 217.004 312.027 216.348 312.027ZM221.914 315.361V313.994H226.715V315.361H221.914ZM231.347 319.129V308.826H227.179V307.376H237.232V308.826H233.064V319.129H231.347ZM237.201 319.129V310.993H238.835V312.444C239.257 311.477 240.135 310.938 241.469 310.827L242.019 310.793L242.136 312.227L241.119 312.327C239.641 312.472 238.902 313.233 238.902 314.611V319.129H237.201ZM245.94 319.279C245.373 319.279 244.867 319.168 244.423 318.946C243.978 318.723 243.622 318.423 243.356 318.045C243.1 317.667 242.972 317.24 242.972 316.762C242.972 316.161 243.122 315.689 243.422 315.345C243.734 315 244.239 314.75 244.94 314.594C245.651 314.439 246.607 314.361 247.807 314.361H248.374V313.928C248.374 313.294 248.24 312.838 247.974 312.56C247.707 312.283 247.268 312.144 246.657 312.144C246.19 312.144 245.723 312.216 245.256 312.36C244.789 312.494 244.312 312.711 243.823 313.011L243.306 311.827C243.728 311.527 244.256 311.288 244.889 311.11C245.523 310.932 246.129 310.843 246.707 310.843C247.818 310.843 248.64 311.11 249.174 311.644C249.707 312.166 249.974 312.988 249.974 314.111V319.129H248.39V317.779C248.19 318.245 247.879 318.612 247.457 318.879C247.035 319.146 246.529 319.279 245.94 319.279ZM246.273 318.079C246.873 318.079 247.373 317.867 247.774 317.445C248.174 317.023 248.374 316.489 248.374 315.845V315.395H247.824C247.012 315.395 246.373 315.433 245.906 315.511C245.451 315.589 245.123 315.722 244.923 315.911C244.734 316.089 244.639 316.339 244.639 316.662C244.639 317.084 244.784 317.428 245.073 317.695C245.362 317.951 245.762 318.079 246.273 318.079ZM255.878 319.279C255.044 319.279 254.322 319.107 253.71 318.762C253.11 318.406 252.643 317.912 252.31 317.278C251.977 316.634 251.81 315.878 251.81 315.011C251.81 313.722 252.177 312.705 252.91 311.96C253.644 311.216 254.633 310.843 255.878 310.843C256.389 310.843 256.895 310.932 257.395 311.11C257.895 311.288 258.306 311.532 258.628 311.844L258.095 313.027C257.784 312.738 257.439 312.527 257.061 312.394C256.694 312.249 256.344 312.177 256.011 312.177C255.222 312.177 254.611 312.427 254.177 312.927C253.755 313.416 253.544 314.116 253.544 315.028C253.544 315.939 253.755 316.656 254.177 317.178C254.611 317.69 255.222 317.945 256.011 317.945C256.344 317.945 256.694 317.879 257.061 317.745C257.439 317.601 257.784 317.384 258.095 317.095L258.628 318.295C258.306 318.595 257.889 318.834 257.378 319.012C256.878 319.19 256.378 319.279 255.878 319.279ZM260.075 319.129V307.376H261.759V314.544H261.792L265.327 310.993H267.411L263.51 314.911L267.711 319.129H265.61L261.792 315.411H261.759V319.129H260.075ZM268.521 309.11V307.359H270.488V309.11H268.521ZM268.671 319.129V310.993H270.355V319.129H268.671ZM272.725 319.129V310.993H274.359V312.344C274.637 311.855 275.015 311.482 275.493 311.227C275.982 310.971 276.526 310.843 277.126 310.843C279.049 310.843 280.01 311.933 280.01 314.111V319.129H278.327V314.211C278.327 313.511 278.188 312.999 277.91 312.677C277.643 312.355 277.221 312.194 276.643 312.194C275.965 312.194 275.42 312.41 275.009 312.844C274.609 313.266 274.409 313.827 274.409 314.528V319.129H272.725ZM286.015 322.28C285.281 322.28 284.598 322.191 283.964 322.013C283.331 321.846 282.77 321.58 282.281 321.213L282.797 320.012C283.286 320.346 283.787 320.59 284.298 320.746C284.809 320.902 285.342 320.979 285.898 320.979C287.454 320.979 288.232 320.201 288.232 318.645V317.362C287.999 317.851 287.632 318.234 287.132 318.512C286.643 318.79 286.093 318.929 285.481 318.929C284.748 318.929 284.109 318.762 283.564 318.429C283.02 318.084 282.597 317.612 282.297 317.012C281.997 316.4 281.847 315.689 281.847 314.878C281.847 314.078 281.997 313.377 282.297 312.777C282.597 312.166 283.02 311.694 283.564 311.36C284.109 311.016 284.748 310.843 285.481 310.843C286.104 310.843 286.66 310.982 287.149 311.26C287.638 311.538 287.999 311.921 288.232 312.41V310.993H289.866V318.445C289.866 319.724 289.538 320.679 288.882 321.313C288.227 321.957 287.271 322.28 286.015 322.28ZM285.882 317.612C286.593 317.612 287.16 317.367 287.582 316.878C288.004 316.389 288.215 315.722 288.215 314.878C288.215 314.033 288.004 313.372 287.582 312.894C287.16 312.405 286.593 312.16 285.882 312.16C285.17 312.16 284.603 312.405 284.181 312.894C283.759 313.372 283.548 314.033 283.548 314.878C283.548 315.722 283.759 316.389 284.181 316.878C284.603 317.367 285.17 317.612 285.882 317.612Z" fill="#878787"/>
<rect x="151.657" y="301" width="25.0067" height="25.0067" rx="5.20972" fill="#2DC18C"/>
<path d="M159.484 313.767L162.431 316.631L168.862 310.379" stroke="#FEFEFE" stroke-width="1.56292" stroke-linecap="round" stroke-linejoin="round"/>
<path d="M189.546 368.275C188.357 368.275 187.34 368.031 186.495 367.542C185.651 367.052 185.001 366.358 184.545 365.458C184.1 364.546 183.878 363.474 183.878 362.24C183.878 361.006 184.1 359.939 184.545 359.039C185.001 358.139 185.651 357.444 186.495 356.955C187.34 356.466 188.357 356.222 189.546 356.222C190.346 356.222 191.091 356.35 191.78 356.605C192.48 356.85 193.064 357.205 193.531 357.672L192.93 359.056C192.419 358.6 191.891 358.272 191.347 358.072C190.813 357.861 190.23 357.756 189.596 357.756C188.329 357.756 187.362 358.145 186.695 358.923C186.029 359.701 185.695 360.806 185.695 362.24C185.695 363.674 186.029 364.785 186.695 365.574C187.362 366.352 188.329 366.741 189.596 366.741C190.23 366.741 190.813 366.641 191.347 366.441C191.891 366.23 192.419 365.897 192.93 365.441L193.531 366.825C193.064 367.28 192.48 367.636 191.78 367.892C191.091 368.147 190.346 368.275 189.546 368.275ZM198.309 368.275C197.487 368.275 196.775 368.103 196.175 367.758C195.575 367.414 195.108 366.93 194.775 366.308C194.452 365.674 194.291 364.924 194.291 364.057C194.291 363.19 194.452 362.446 194.775 361.823C195.108 361.19 195.575 360.701 196.175 360.356C196.775 360.012 197.487 359.839 198.309 359.839C199.109 359.839 199.809 360.012 200.41 360.356C201.01 360.701 201.476 361.19 201.81 361.823C202.143 362.446 202.31 363.19 202.31 364.057C202.31 364.924 202.143 365.674 201.81 366.308C201.476 366.93 201.01 367.414 200.41 367.758C199.809 368.103 199.109 368.275 198.309 368.275ZM198.309 366.975C198.998 366.975 199.554 366.725 199.976 366.224C200.398 365.724 200.61 365.002 200.61 364.057C200.61 363.113 200.398 362.396 199.976 361.907C199.554 361.407 198.998 361.156 198.309 361.156C197.609 361.156 197.048 361.407 196.625 361.907C196.203 362.396 195.992 363.113 195.992 364.057C195.992 365.002 196.203 365.724 196.625 366.224C197.048 366.725 197.609 366.975 198.309 366.975ZM204.201 368.125V359.989H205.835V361.34C206.113 360.851 206.491 360.479 206.968 360.223C207.457 359.967 208.002 359.839 208.602 359.839C210.525 359.839 211.486 360.929 211.486 363.107V368.125H209.803V363.207C209.803 362.507 209.664 361.996 209.386 361.673C209.119 361.351 208.697 361.19 208.119 361.19C207.441 361.19 206.896 361.407 206.485 361.84C206.085 362.262 205.885 362.824 205.885 363.524V368.125H204.201ZM217.274 368.275C216.252 368.275 215.49 368.014 214.99 367.491C214.49 366.969 214.24 366.213 214.24 365.224V361.29H212.656V359.989H214.24V357.539H215.924V359.989H218.441V361.29H215.924V365.091C215.924 365.68 216.046 366.124 216.29 366.425C216.546 366.725 216.957 366.875 217.524 366.875C217.702 366.875 217.874 366.858 218.041 366.825C218.208 366.78 218.374 366.73 218.541 366.675L218.808 367.942C218.641 368.042 218.408 368.119 218.108 368.175C217.819 368.242 217.541 368.275 217.274 368.275ZM219.895 368.125V359.989H221.529V361.44C221.951 360.473 222.829 359.934 224.163 359.823L224.713 359.789L224.83 361.223L223.813 361.323C222.335 361.468 221.596 362.229 221.596 363.607V368.125H219.895ZM228.634 368.275C228.067 368.275 227.561 368.164 227.117 367.942C226.672 367.719 226.316 367.419 226.05 367.041C225.794 366.663 225.666 366.236 225.666 365.758C225.666 365.158 225.816 364.685 226.116 364.341C226.428 363.996 226.933 363.746 227.633 363.59C228.345 363.435 229.301 363.357 230.501 363.357H231.068V362.924C231.068 362.29 230.934 361.834 230.668 361.557C230.401 361.279 229.962 361.14 229.351 361.14C228.884 361.14 228.417 361.212 227.95 361.357C227.483 361.49 227.006 361.707 226.516 362.007L226 360.823C226.422 360.523 226.95 360.284 227.583 360.106C228.217 359.928 228.823 359.839 229.401 359.839C230.512 359.839 231.334 360.106 231.868 360.64C232.401 361.162 232.668 361.984 232.668 363.107V368.125H231.084V366.775C230.884 367.241 230.573 367.608 230.151 367.875C229.728 368.142 229.223 368.275 228.634 368.275ZM228.967 367.075C229.567 367.075 230.067 366.864 230.468 366.441C230.868 366.019 231.068 365.485 231.068 364.841V364.391H230.518C229.706 364.391 229.067 364.43 228.6 364.507C228.145 364.585 227.817 364.719 227.617 364.907C227.428 365.085 227.333 365.335 227.333 365.658C227.333 366.08 227.478 366.425 227.767 366.691C228.056 366.947 228.456 367.075 228.967 367.075ZM238.572 368.275C237.738 368.275 237.016 368.103 236.404 367.758C235.804 367.403 235.337 366.908 235.004 366.275C234.67 365.63 234.504 364.874 234.504 364.007C234.504 362.718 234.871 361.701 235.604 360.956C236.338 360.212 237.327 359.839 238.572 359.839C239.083 359.839 239.588 359.928 240.089 360.106C240.589 360.284 241 360.529 241.322 360.84L240.789 362.023C240.478 361.734 240.133 361.523 239.755 361.39C239.388 361.245 239.038 361.173 238.705 361.173C237.916 361.173 237.305 361.423 236.871 361.923C236.449 362.412 236.238 363.113 236.238 364.024C236.238 364.935 236.449 365.652 236.871 366.174C237.305 366.686 237.916 366.941 238.705 366.941C239.038 366.941 239.388 366.875 239.755 366.741C240.133 366.597 240.478 366.38 240.789 366.091L241.322 367.291C241 367.592 240.583 367.83 240.072 368.008C239.572 368.186 239.072 368.275 238.572 368.275ZM246.253 368.275C245.231 368.275 244.469 368.014 243.969 367.491C243.469 366.969 243.219 366.213 243.219 365.224V361.29H241.635V359.989H243.219V357.539H244.903V359.989H247.42V361.29H244.903V365.091C244.903 365.68 245.025 366.124 245.27 366.425C245.525 366.725 245.936 366.875 246.503 366.875C246.681 366.875 246.853 366.858 247.02 366.825C247.187 366.78 247.353 366.73 247.52 366.675L247.787 367.942C247.62 368.042 247.387 368.119 247.087 368.175C246.798 368.242 246.52 368.275 246.253 368.275ZM251.725 368.275C251.058 368.275 250.436 368.192 249.858 368.025C249.28 367.847 248.797 367.603 248.408 367.291L248.891 366.158C249.302 366.447 249.752 366.669 250.241 366.825C250.742 366.98 251.242 367.058 251.742 367.058C252.331 367.058 252.775 366.952 253.076 366.741C253.376 366.53 253.526 366.247 253.526 365.891C253.526 365.602 253.426 365.38 253.226 365.224C253.026 365.058 252.725 364.93 252.325 364.841L250.742 364.524C249.341 364.235 248.641 363.513 248.641 362.357C248.641 361.59 248.947 360.979 249.558 360.523C250.169 360.067 250.969 359.839 251.959 359.839C252.525 359.839 253.064 359.923 253.576 360.09C254.098 360.256 254.531 360.506 254.876 360.84L254.393 361.973C254.059 361.684 253.676 361.462 253.242 361.307C252.809 361.151 252.381 361.073 251.959 361.073C251.381 361.073 250.942 361.184 250.642 361.407C250.341 361.618 250.191 361.907 250.191 362.273C250.191 362.829 250.558 363.185 251.292 363.34L252.875 363.657C253.598 363.802 254.142 364.046 254.509 364.391C254.887 364.735 255.076 365.202 255.076 365.791C255.076 366.569 254.77 367.18 254.159 367.625C253.548 368.058 252.737 368.275 251.725 368.275ZM265.03 368.275C263.818 368.275 262.868 367.997 262.179 367.441C261.49 366.886 261.146 366.147 261.146 365.224C261.146 364.468 261.351 363.813 261.762 363.257C262.174 362.701 262.774 362.179 263.563 361.69L263.763 361.573C263.285 361.073 262.946 360.617 262.746 360.206C262.557 359.784 262.463 359.35 262.463 358.906C262.463 358.106 262.74 357.461 263.296 356.972C263.852 356.472 264.591 356.222 265.513 356.222C266.347 356.222 267.019 356.444 267.531 356.889C268.042 357.333 268.297 357.933 268.297 358.689C268.297 359.267 268.125 359.806 267.781 360.306C267.447 360.795 266.864 361.301 266.03 361.823L268.547 364.591C268.77 364.135 268.948 363.613 269.081 363.024C269.214 362.423 269.298 361.801 269.331 361.156H270.748C270.726 362.012 270.609 362.824 270.398 363.59C270.187 364.346 269.903 365.019 269.548 365.608L271.965 368.125H269.915L268.648 366.741C268.181 367.23 267.636 367.608 267.014 367.875C266.391 368.142 265.73 368.275 265.03 368.275ZM265.513 357.455C265.069 357.455 264.708 357.589 264.43 357.856C264.163 358.111 264.03 358.45 264.03 358.873C264.03 359.195 264.102 359.489 264.246 359.756C264.402 360.023 264.685 360.39 265.097 360.856C265.741 360.456 266.197 360.101 266.464 359.789C266.73 359.478 266.864 359.134 266.864 358.756C266.864 358.345 266.736 358.028 266.48 357.806C266.236 357.572 265.913 357.455 265.513 357.455ZM265.113 366.925C266.158 366.925 267.019 366.541 267.697 365.774L264.68 362.557L264.58 362.624C263.935 363.035 263.479 363.424 263.213 363.791C262.946 364.146 262.813 364.58 262.813 365.091C262.813 365.669 263.007 366.119 263.396 366.441C263.796 366.764 264.369 366.925 265.113 366.925ZM280.562 368.125V357.822H276.395V356.372H286.447V357.822H282.28V368.125H280.562ZM289.018 368.275C288.451 368.275 287.945 368.164 287.501 367.942C287.056 367.719 286.7 367.419 286.434 367.041C286.178 366.663 286.05 366.236 286.05 365.758C286.05 365.158 286.2 364.685 286.5 364.341C286.812 363.996 287.317 363.746 288.017 363.59C288.729 363.435 289.684 363.357 290.885 363.357H291.452V362.924C291.452 362.29 291.318 361.834 291.052 361.557C290.785 361.279 290.346 361.14 289.735 361.14C289.268 361.14 288.801 361.212 288.334 361.357C287.867 361.49 287.389 361.707 286.9 362.007L286.384 360.823C286.806 360.523 287.334 360.284 287.967 360.106C288.601 359.928 289.207 359.839 289.785 359.839C290.896 359.839 291.718 360.106 292.252 360.64C292.785 361.162 293.052 361.984 293.052 363.107V368.125H291.468V366.775C291.268 367.241 290.957 367.608 290.535 367.875C290.112 368.142 289.607 368.275 289.018 368.275ZM289.351 367.075C289.951 367.075 290.451 366.864 290.851 366.441C291.252 366.019 291.452 365.485 291.452 364.841V364.391H290.901C290.09 364.391 289.451 364.43 288.984 364.507C288.529 364.585 288.201 364.719 288.001 364.907C287.812 365.085 287.717 365.335 287.717 365.658C287.717 366.08 287.862 366.425 288.151 366.691C288.44 366.947 288.84 367.075 289.351 367.075ZM294.288 368.125L297.672 363.924L294.504 359.989H296.471L298.655 362.774L300.839 359.989H302.806L299.622 363.941L303.023 368.125H301.023L298.639 365.124L296.271 368.125H294.288ZM308.839 368.125V356.372H316.308V357.772H310.573V361.523H315.958V362.924H310.573V368.125H308.839ZM321.112 368.275C320.289 368.275 319.578 368.103 318.978 367.758C318.378 367.414 317.911 366.93 317.578 366.308C317.255 365.674 317.094 364.924 317.094 364.057C317.094 363.19 317.255 362.446 317.578 361.823C317.911 361.19 318.378 360.701 318.978 360.356C319.578 360.012 320.289 359.839 321.112 359.839C321.912 359.839 322.612 360.012 323.212 360.356C323.813 360.701 324.279 361.19 324.613 361.823C324.946 362.446 325.113 363.19 325.113 364.057C325.113 364.924 324.946 365.674 324.613 366.308C324.279 366.93 323.813 367.414 323.212 367.758C322.612 368.103 321.912 368.275 321.112 368.275ZM321.112 366.975C321.801 366.975 322.357 366.725 322.779 366.224C323.201 365.724 323.412 365.002 323.412 364.057C323.412 363.113 323.201 362.396 322.779 361.907C322.357 361.407 321.801 361.156 321.112 361.156C320.412 361.156 319.85 361.407 319.428 361.907C319.006 362.396 318.795 363.113 318.795 364.057C318.795 365.002 319.006 365.724 319.428 366.224C319.85 366.725 320.412 366.975 321.112 366.975ZM327.004 368.125V359.989H328.638V361.44C329.06 360.473 329.938 359.934 331.272 359.823L331.822 359.789L331.939 361.223L330.922 361.323C329.443 361.468 328.704 362.229 328.704 363.607V368.125H327.004ZM333.256 368.125V359.989H334.89V361.307C335.135 360.84 335.474 360.479 335.907 360.223C336.341 359.967 336.846 359.839 337.424 359.839C338.669 359.839 339.475 360.384 339.841 361.473C340.097 360.962 340.464 360.562 340.942 360.273C341.42 359.984 341.964 359.839 342.576 359.839C344.398 359.839 345.31 360.929 345.31 363.107V368.125H343.626V363.19C343.626 362.501 343.504 361.996 343.259 361.673C343.026 361.351 342.637 361.19 342.092 361.19C341.481 361.19 340.997 361.407 340.642 361.84C340.286 362.262 340.108 362.84 340.108 363.574V368.125H338.424V363.19C338.424 362.501 338.308 361.996 338.074 361.673C337.841 361.351 337.452 361.19 336.907 361.19C336.296 361.19 335.813 361.407 335.457 361.84C335.112 362.262 334.94 362.84 334.94 363.574V368.125H333.256ZM350.514 368.275C349.848 368.275 349.225 368.192 348.647 368.025C348.069 367.847 347.586 367.603 347.197 367.291L347.68 366.158C348.092 366.447 348.542 366.669 349.031 366.825C349.531 366.98 350.031 367.058 350.531 367.058C351.12 367.058 351.565 366.952 351.865 366.741C352.165 366.53 352.315 366.247 352.315 365.891C352.315 365.602 352.215 365.38 352.015 365.224C351.815 365.058 351.515 364.93 351.115 364.841L349.531 364.524C348.131 364.235 347.43 363.513 347.43 362.357C347.43 361.59 347.736 360.979 348.347 360.523C348.959 360.067 349.759 359.839 350.748 359.839C351.315 359.839 351.854 359.923 352.365 360.09C352.887 360.256 353.321 360.506 353.665 360.84L353.182 361.973C352.848 361.684 352.465 361.462 352.032 361.307C351.598 361.151 351.17 361.073 350.748 361.073C350.17 361.073 349.731 361.184 349.431 361.407C349.131 361.618 348.981 361.907 348.981 362.273C348.981 362.829 349.348 363.185 350.081 363.34L351.665 363.657C352.387 363.802 352.932 364.046 353.299 364.391C353.676 364.735 353.865 365.202 353.865 365.791C353.865 366.569 353.56 367.18 352.948 367.625C352.337 368.058 351.526 368.275 350.514 368.275Z" fill="#878787"/>
<rect x="151.657" y="350" width="25.0067" height="25.0067" rx="5.20972" fill="#2DC18C"/>
<path d="M159.484 362.765L162.431 365.629L168.862 359.377" stroke="#FEFEFE" stroke-width="1.56292" stroke-linecap="round" stroke-linejoin="round"/>
<path d="M186.173 270.207V259.904H182.005V258.454H192.058V259.904H187.89V270.207H186.173ZM193.164 260.188V258.437H195.131V260.188H193.164ZM193.314 270.207V262.072H194.997V270.207H193.314ZM197.401 270.207V262.072H199.035V263.389C199.279 262.922 199.618 262.561 200.052 262.305C200.485 262.049 200.991 261.921 201.569 261.921C202.813 261.921 203.619 262.466 203.986 263.555C204.242 263.044 204.608 262.644 205.086 262.355C205.564 262.066 206.109 261.921 206.72 261.921C208.543 261.921 209.454 263.011 209.454 265.189V270.207H207.77V265.272C207.77 264.583 207.648 264.078 207.403 263.755C207.17 263.433 206.781 263.272 206.236 263.272C205.625 263.272 205.142 263.489 204.786 263.922C204.43 264.344 204.253 264.922 204.253 265.656V270.207H202.569V265.272C202.569 264.583 202.452 264.078 202.219 263.755C201.985 263.433 201.596 263.272 201.052 263.272C200.44 263.272 199.957 263.489 199.601 263.922C199.257 264.344 199.085 264.922 199.085 265.656V270.207H197.401ZM215.626 270.357C214.292 270.357 213.242 269.985 212.475 269.24C211.708 268.484 211.325 267.456 211.325 266.156C211.325 265.322 211.491 264.589 211.825 263.955C212.169 263.311 212.642 262.811 213.242 262.455C213.842 262.099 214.531 261.921 215.309 261.921C216.432 261.921 217.315 262.283 217.96 263.005C218.604 263.716 218.927 264.7 218.927 265.956V266.523H212.958C213.081 268.212 213.975 269.057 215.643 269.057C216.109 269.057 216.565 268.984 217.01 268.84C217.465 268.696 217.893 268.457 218.293 268.123L218.793 269.29C218.427 269.624 217.954 269.885 217.376 270.074C216.798 270.263 216.215 270.357 215.626 270.357ZM215.376 263.105C214.676 263.105 214.12 263.322 213.709 263.755C213.297 264.189 213.047 264.767 212.958 265.489H217.51C217.476 264.733 217.276 264.15 216.91 263.739C216.543 263.316 216.031 263.105 215.376 263.105ZM220.941 266.439V265.072H225.742V266.439H220.941ZM233.39 270.357C232.267 270.357 231.295 270.113 230.472 269.624C229.65 269.123 229.011 268.423 228.555 267.523C228.11 266.612 227.888 265.545 227.888 264.322C227.888 263.088 228.11 262.022 228.555 261.121C229.011 260.221 229.65 259.526 230.472 259.037C231.295 258.548 232.267 258.304 233.39 258.304C234.501 258.304 235.468 258.548 236.29 259.037C237.124 259.526 237.763 260.221 238.207 261.121C238.663 262.022 238.891 263.083 238.891 264.305C238.891 265.539 238.663 266.612 238.207 267.523C237.763 268.423 237.124 269.123 236.29 269.624C235.468 270.113 234.501 270.357 233.39 270.357ZM233.39 268.857C234.557 268.857 235.462 268.462 236.107 267.673C236.763 266.873 237.091 265.756 237.091 264.322C237.091 262.888 236.768 261.777 236.124 260.988C235.479 260.199 234.568 259.804 233.39 259.804C232.223 259.804 231.311 260.199 230.655 260.988C230.011 261.777 229.689 262.888 229.689 264.322C229.689 265.756 230.011 266.873 230.655 267.673C231.311 268.462 232.223 268.857 233.39 268.857ZM241.515 270.207V263.372H239.931V262.072H241.515V261.921C241.515 260.799 241.798 259.954 242.365 259.387C242.943 258.821 243.827 258.504 245.016 258.437L245.749 258.387L245.866 259.654L245.099 259.704C244.421 259.749 243.932 259.932 243.632 260.254C243.343 260.577 243.199 261.055 243.199 261.688V262.072H245.483V263.372H243.199V270.207H241.515ZM246.985 270.207V263.372H245.401V262.072H246.985V261.921C246.985 260.799 247.269 259.954 247.835 259.387C248.413 258.821 249.297 258.504 250.486 258.437L251.22 258.387L251.336 259.654L250.569 259.704C249.891 259.749 249.402 259.932 249.102 260.254C248.813 260.577 248.669 261.055 248.669 261.688V262.072H250.953V263.372H248.669V270.207H246.985ZM256.877 270.207V258.454H258.328L262.679 266.573L267.013 258.454H268.43V270.207H266.88V261.588L263.196 268.407H262.145L258.444 261.621V270.207H256.877ZM273.621 270.357C273.054 270.357 272.548 270.246 272.104 270.024C271.659 269.801 271.303 269.501 271.037 269.123C270.781 268.746 270.653 268.318 270.653 267.84C270.653 267.24 270.803 266.767 271.103 266.423C271.414 266.078 271.92 265.828 272.62 265.672C273.332 265.517 274.287 265.439 275.488 265.439H276.055V265.006C276.055 264.372 275.921 263.916 275.654 263.639C275.388 263.361 274.949 263.222 274.337 263.222C273.871 263.222 273.404 263.294 272.937 263.439C272.47 263.572 271.992 263.789 271.503 264.089L270.987 262.905C271.409 262.605 271.937 262.366 272.57 262.188C273.204 262.01 273.81 261.921 274.387 261.921C275.499 261.921 276.321 262.188 276.855 262.722C277.388 263.244 277.655 264.067 277.655 265.189V270.207H276.071V268.857C275.871 269.323 275.56 269.69 275.138 269.957C274.715 270.224 274.21 270.357 273.621 270.357ZM273.954 269.157C274.554 269.157 275.054 268.946 275.454 268.523C275.855 268.101 276.055 267.567 276.055 266.923V266.473H275.504C274.693 266.473 274.054 266.512 273.587 266.589C273.132 266.667 272.804 266.801 272.604 266.99C272.415 267.167 272.32 267.417 272.32 267.74C272.32 268.162 272.465 268.507 272.754 268.773C273.043 269.029 273.443 269.157 273.954 269.157ZM279.974 270.207V262.072H281.608V263.422C281.886 262.933 282.264 262.561 282.741 262.305C283.231 262.049 283.775 261.921 284.375 261.921C286.298 261.921 287.259 263.011 287.259 265.189V270.207H285.576V265.289C285.576 264.589 285.437 264.078 285.159 263.755C284.892 263.433 284.47 263.272 283.892 263.272C283.214 263.272 282.669 263.489 282.258 263.922C281.858 264.344 281.658 264.906 281.658 265.606V270.207H279.974ZM292.18 270.357C291.613 270.357 291.108 270.246 290.663 270.024C290.219 269.801 289.863 269.501 289.596 269.123C289.341 268.746 289.213 268.318 289.213 267.84C289.213 267.24 289.363 266.767 289.663 266.423C289.974 266.078 290.48 265.828 291.18 265.672C291.891 265.517 292.847 265.439 294.047 265.439H294.614V265.006C294.614 264.372 294.481 263.916 294.214 263.639C293.947 263.361 293.508 263.222 292.897 263.222C292.43 263.222 291.963 263.294 291.497 263.439C291.03 263.572 290.552 263.789 290.063 264.089L289.546 262.905C289.969 262.605 290.496 262.366 291.13 262.188C291.763 262.01 292.369 261.921 292.947 261.921C294.058 261.921 294.881 262.188 295.414 262.722C295.948 263.244 296.215 264.067 296.215 265.189V270.207H294.631V268.857C294.431 269.323 294.12 269.69 293.697 269.957C293.275 270.224 292.769 270.357 292.18 270.357ZM292.514 269.157C293.114 269.157 293.614 268.946 294.014 268.523C294.414 268.101 294.614 267.567 294.614 266.923V266.473H294.064C293.253 266.473 292.614 266.512 292.147 266.589C291.691 266.667 291.363 266.801 291.163 266.99C290.974 267.167 290.88 267.417 290.88 267.74C290.88 268.162 291.024 268.507 291.313 268.773C291.602 269.029 292.002 269.157 292.514 269.157ZM302.218 273.358C301.485 273.358 300.801 273.269 300.167 273.091C299.534 272.924 298.973 272.658 298.484 272.291L299.001 271.091C299.49 271.424 299.99 271.669 300.501 271.824C301.012 271.98 301.546 272.058 302.101 272.058C303.657 272.058 304.435 271.28 304.435 269.724V268.44C304.202 268.929 303.835 269.312 303.335 269.59C302.846 269.868 302.296 270.007 301.685 270.007C300.951 270.007 300.312 269.84 299.767 269.507C299.223 269.162 298.8 268.69 298.5 268.09C298.2 267.479 298.05 266.767 298.05 265.956C298.05 265.156 298.2 264.455 298.5 263.855C298.8 263.244 299.223 262.772 299.767 262.438C300.312 262.094 300.951 261.921 301.685 261.921C302.307 261.921 302.863 262.06 303.352 262.338C303.841 262.616 304.202 263 304.435 263.489V262.072H306.069V269.524C306.069 270.802 305.741 271.757 305.085 272.391C304.43 273.036 303.474 273.358 302.218 273.358ZM302.085 268.69C302.796 268.69 303.363 268.445 303.785 267.956C304.207 267.467 304.419 266.801 304.419 265.956C304.419 265.111 304.207 264.45 303.785 263.972C303.363 263.483 302.796 263.239 302.085 263.239C301.373 263.239 300.807 263.483 300.384 263.972C299.962 264.45 299.751 265.111 299.751 265.956C299.751 266.801 299.962 267.467 300.384 267.956C300.807 268.445 301.373 268.69 302.085 268.69ZM312.25 270.357C310.916 270.357 309.866 269.985 309.099 269.24C308.332 268.484 307.949 267.456 307.949 266.156C307.949 265.322 308.115 264.589 308.449 263.955C308.793 263.311 309.266 262.811 309.866 262.455C310.466 262.099 311.155 261.921 311.933 261.921C313.056 261.921 313.939 262.283 314.584 263.005C315.228 263.716 315.551 264.7 315.551 265.956V266.523H309.582C309.705 268.212 310.599 269.057 312.267 269.057C312.733 269.057 313.189 268.984 313.634 268.84C314.089 268.696 314.517 268.457 314.917 268.123L315.417 269.29C315.051 269.624 314.578 269.885 314 270.074C313.422 270.263 312.839 270.357 312.25 270.357ZM312 263.105C311.3 263.105 310.744 263.322 310.333 263.755C309.921 264.189 309.671 264.767 309.582 265.489H314.134C314.1 264.733 313.9 264.15 313.534 263.739C313.167 263.316 312.656 263.105 312 263.105ZM317.42 270.207V262.072H319.054V263.389C319.298 262.922 319.637 262.561 320.07 262.305C320.504 262.049 321.01 261.921 321.588 261.921C322.832 261.921 323.638 262.466 324.005 263.555C324.26 263.044 324.627 262.644 325.105 262.355C325.583 262.066 326.128 261.921 326.739 261.921C328.562 261.921 329.473 263.011 329.473 265.189V270.207H327.789V265.272C327.789 264.583 327.667 264.078 327.422 263.755C327.189 263.433 326.8 263.272 326.255 263.272C325.644 263.272 325.161 263.489 324.805 263.922C324.449 264.344 324.272 264.922 324.272 265.656V270.207H322.588V265.272C322.588 264.583 322.471 264.078 322.238 263.755C322.004 263.433 321.615 263.272 321.071 263.272C320.459 263.272 319.976 263.489 319.62 263.922C319.276 264.344 319.104 264.922 319.104 265.656V270.207H317.42ZM335.645 270.357C334.311 270.357 333.261 269.985 332.494 269.24C331.727 268.484 331.344 267.456 331.344 266.156C331.344 265.322 331.51 264.589 331.844 263.955C332.188 263.311 332.661 262.811 333.261 262.455C333.861 262.099 334.55 261.921 335.328 261.921C336.451 261.921 337.334 262.283 337.979 263.005C338.623 263.716 338.946 264.7 338.946 265.956V266.523H332.977C333.1 268.212 333.994 269.057 335.661 269.057C336.128 269.057 336.584 268.984 337.028 268.84C337.484 268.696 337.912 268.457 338.312 268.123L338.812 269.29C338.446 269.624 337.973 269.885 337.395 270.074C336.817 270.263 336.234 270.357 335.645 270.357ZM335.395 263.105C334.695 263.105 334.139 263.322 333.728 263.755C333.316 264.189 333.066 264.767 332.977 265.489H337.529C337.495 264.733 337.295 264.15 336.928 263.739C336.562 263.316 336.05 263.105 335.395 263.105ZM340.781 270.207V262.072H342.415V263.422C342.693 262.933 343.071 262.561 343.549 262.305C344.038 262.049 344.582 261.921 345.182 261.921C347.105 261.921 348.067 263.011 348.067 265.189V270.207H346.383V265.289C346.383 264.589 346.244 264.078 345.966 263.755C345.699 263.433 345.277 263.272 344.699 263.272C344.021 263.272 343.476 263.489 343.065 263.922C342.665 264.344 342.465 264.906 342.465 265.606V270.207H340.781ZM353.854 270.357C352.832 270.357 352.071 270.096 351.57 269.574C351.07 269.051 350.82 268.295 350.82 267.306V263.372H349.236V262.072H350.82V259.621H352.504V262.072H355.021V263.372H352.504V267.173C352.504 267.762 352.626 268.206 352.871 268.507C353.126 268.807 353.538 268.957 354.104 268.957C354.282 268.957 354.454 268.94 354.621 268.907C354.788 268.862 354.955 268.812 355.121 268.757L355.388 270.024C355.221 270.124 354.988 270.201 354.688 270.257C354.399 270.324 354.121 270.357 353.854 270.357Z" fill="#878787"/>
<rect x="150.915" y="252" width="25.0067" height="25.0067" rx="5.20972" fill="#2DC18C"/>
<path d="M158.742 264.763L161.689 267.627L168.12 261.375" stroke="#FEFEFE" stroke-width="1.56292" stroke-linecap="round" stroke-linejoin="round"/>
<path d="M183.367 221V209.247H185.101V214.315H191.686V209.247H193.403V221H191.686V215.765H185.101V221H183.367ZM196.147 221V209.247H201.015C202.282 209.247 203.26 209.553 203.949 210.164C204.638 210.764 204.983 211.609 204.983 212.698C204.983 213.576 204.749 214.298 204.283 214.865C203.816 215.421 203.155 215.793 202.299 215.982C202.832 216.16 203.282 216.588 203.649 217.266L205.683 221H203.782L201.749 217.249C201.515 216.816 201.243 216.527 200.932 216.382C200.632 216.227 200.243 216.149 199.765 216.149H197.881V221H196.147ZM197.881 214.848H200.732C202.443 214.848 203.299 214.143 203.299 212.731C203.299 211.331 202.443 210.631 200.732 210.631H197.881V214.848ZM211.842 221V209.247H213.293L217.644 217.366L221.978 209.247H223.395V221H221.845V212.381L218.161 219.2H217.11L213.409 212.414V221H211.842ZM228.585 221.15C228.019 221.15 227.513 221.039 227.068 220.817C226.624 220.594 226.268 220.294 226.001 219.916C225.746 219.538 225.618 219.111 225.618 218.633C225.618 218.033 225.768 217.56 226.068 217.216C226.379 216.871 226.885 216.621 227.585 216.465C228.296 216.31 229.252 216.232 230.453 216.232H231.019V215.799C231.019 215.165 230.886 214.709 230.619 214.432C230.353 214.154 229.914 214.015 229.302 214.015C228.836 214.015 228.369 214.087 227.902 214.232C227.435 214.365 226.957 214.582 226.468 214.882L225.951 213.698C226.374 213.398 226.902 213.159 227.535 212.981C228.169 212.803 228.774 212.714 229.352 212.714C230.464 212.714 231.286 212.981 231.82 213.515C232.353 214.037 232.62 214.859 232.62 215.982V221H231.036V219.65C230.836 220.116 230.525 220.483 230.103 220.75C229.68 221.017 229.175 221.15 228.585 221.15ZM228.919 219.95C229.519 219.95 230.019 219.739 230.419 219.316C230.819 218.894 231.019 218.36 231.019 217.716V217.266H230.469C229.658 217.266 229.019 217.305 228.552 217.382C228.096 217.46 227.769 217.594 227.569 217.782C227.38 217.96 227.285 218.21 227.285 218.533C227.285 218.955 227.43 219.3 227.719 219.566C228.008 219.822 228.408 219.95 228.919 219.95ZM234.939 221V212.864H236.573V214.215C236.851 213.726 237.228 213.354 237.706 213.098C238.195 212.842 238.74 212.714 239.34 212.714C241.263 212.714 242.224 213.804 242.224 215.982V221H240.54V216.082C240.54 215.382 240.402 214.871 240.124 214.548C239.857 214.226 239.435 214.065 238.857 214.065C238.179 214.065 237.634 214.282 237.223 214.715C236.823 215.137 236.623 215.699 236.623 216.399V221H234.939ZM247.145 221.15C246.578 221.15 246.073 221.039 245.628 220.817C245.183 220.594 244.828 220.294 244.561 219.916C244.305 219.538 244.178 219.111 244.178 218.633C244.178 218.033 244.328 217.56 244.628 217.216C244.939 216.871 245.445 216.621 246.145 216.465C246.856 216.31 247.812 216.232 249.012 216.232H249.579V215.799C249.579 215.165 249.446 214.709 249.179 214.432C248.912 214.154 248.473 214.015 247.862 214.015C247.395 214.015 246.928 214.087 246.462 214.232C245.995 214.365 245.517 214.582 245.028 214.882L244.511 213.698C244.933 213.398 245.461 213.159 246.095 212.981C246.728 212.803 247.334 212.714 247.912 212.714C249.023 212.714 249.846 212.981 250.379 213.515C250.913 214.037 251.179 214.859 251.179 215.982V221H249.596V219.65C249.396 220.116 249.084 220.483 248.662 220.75C248.24 221.017 247.734 221.15 247.145 221.15ZM247.479 219.95C248.079 219.95 248.579 219.739 248.979 219.316C249.379 218.894 249.579 218.36 249.579 217.716V217.266H249.029C248.218 217.266 247.579 217.305 247.112 217.382C246.656 217.46 246.328 217.594 246.128 217.782C245.939 217.96 245.845 218.21 245.845 218.533C245.845 218.955 245.989 219.3 246.278 219.566C246.567 219.822 246.967 219.95 247.479 219.95ZM257.183 224.151C256.449 224.151 255.766 224.062 255.132 223.884C254.499 223.717 253.938 223.451 253.449 223.084L253.965 221.884C254.454 222.217 254.955 222.462 255.466 222.617C255.977 222.773 256.511 222.85 257.066 222.85C258.622 222.85 259.4 222.073 259.4 220.517V219.233C259.167 219.722 258.8 220.105 258.3 220.383C257.811 220.661 257.261 220.8 256.649 220.8C255.916 220.8 255.277 220.633 254.732 220.3C254.188 219.955 253.765 219.483 253.465 218.883C253.165 218.271 253.015 217.56 253.015 216.749C253.015 215.949 253.165 215.248 253.465 214.648C253.765 214.037 254.188 213.565 254.732 213.231C255.277 212.887 255.916 212.714 256.649 212.714C257.272 212.714 257.828 212.853 258.317 213.131C258.806 213.409 259.167 213.793 259.4 214.282V212.864H261.034V220.316C261.034 221.595 260.706 222.55 260.05 223.184C259.395 223.829 258.439 224.151 257.183 224.151ZM257.05 219.483C257.761 219.483 258.328 219.238 258.75 218.749C259.172 218.26 259.383 217.594 259.383 216.749C259.383 215.904 259.172 215.243 258.75 214.765C258.328 214.276 257.761 214.031 257.05 214.031C256.338 214.031 255.771 214.276 255.349 214.765C254.927 215.243 254.716 215.904 254.716 216.749C254.716 217.594 254.927 218.26 255.349 218.749C255.771 219.238 256.338 219.483 257.05 219.483ZM267.215 221.15C265.881 221.15 264.831 220.778 264.064 220.033C263.297 219.277 262.914 218.249 262.914 216.949C262.914 216.115 263.08 215.382 263.414 214.748C263.758 214.104 264.231 213.604 264.831 213.248C265.431 212.892 266.12 212.714 266.898 212.714C268.021 212.714 268.904 213.076 269.549 213.798C270.193 214.509 270.516 215.493 270.516 216.749V217.316H264.547C264.67 219.005 265.564 219.85 267.231 219.85C267.698 219.85 268.154 219.777 268.598 219.633C269.054 219.488 269.482 219.25 269.882 218.916L270.382 220.083C270.015 220.417 269.543 220.678 268.965 220.867C268.387 221.056 267.804 221.15 267.215 221.15ZM266.965 213.898C266.264 213.898 265.709 214.115 265.298 214.548C264.886 214.982 264.636 215.56 264.547 216.282H269.099C269.065 215.526 268.865 214.943 268.498 214.532C268.132 214.109 267.62 213.898 266.965 213.898ZM272.385 221V212.864H274.018V214.182C274.263 213.715 274.602 213.354 275.035 213.098C275.469 212.842 275.974 212.714 276.552 212.714C277.797 212.714 278.603 213.259 278.97 214.348C279.225 213.837 279.592 213.437 280.07 213.148C280.548 212.859 281.092 212.714 281.704 212.714C283.526 212.714 284.438 213.804 284.438 215.982V221H282.754V216.065C282.754 215.376 282.632 214.871 282.387 214.548C282.154 214.226 281.765 214.065 281.22 214.065C280.609 214.065 280.126 214.282 279.77 214.715C279.414 215.137 279.236 215.715 279.236 216.449V221H277.553V216.065C277.553 215.376 277.436 214.871 277.203 214.548C276.969 214.226 276.58 214.065 276.036 214.065C275.424 214.065 274.941 214.282 274.585 214.715C274.241 215.137 274.068 215.715 274.068 216.449V221H272.385ZM290.61 221.15C289.276 221.15 288.226 220.778 287.459 220.033C286.692 219.277 286.309 218.249 286.309 216.949C286.309 216.115 286.475 215.382 286.809 214.748C287.153 214.104 287.626 213.604 288.226 213.248C288.826 212.892 289.515 212.714 290.293 212.714C291.415 212.714 292.299 213.076 292.944 213.798C293.588 214.509 293.911 215.493 293.911 216.749V217.316H287.942C288.065 219.005 288.959 219.85 290.626 219.85C291.093 219.85 291.549 219.777 291.993 219.633C292.449 219.488 292.877 219.25 293.277 218.916L293.777 220.083C293.41 220.417 292.938 220.678 292.36 220.867C291.782 221.056 291.199 221.15 290.61 221.15ZM290.36 213.898C289.659 213.898 289.104 214.115 288.692 214.548C288.281 214.982 288.031 215.56 287.942 216.282H292.493C292.46 215.526 292.26 214.943 291.893 214.532C291.527 214.109 291.015 213.898 290.36 213.898ZM295.746 221V212.864H297.38V214.215C297.658 213.726 298.036 213.354 298.514 213.098C299.003 212.842 299.547 212.714 300.147 212.714C302.07 212.714 303.031 213.804 303.031 215.982V221H301.348V216.082C301.348 215.382 301.209 214.871 300.931 214.548C300.664 214.226 300.242 214.065 299.664 214.065C298.986 214.065 298.441 214.282 298.03 214.715C297.63 215.137 297.43 215.699 297.43 216.399V221H295.746ZM308.819 221.15C307.797 221.15 307.035 220.889 306.535 220.366C306.035 219.844 305.785 219.088 305.785 218.099V214.165H304.201V212.864H305.785V210.414H307.469V212.864H309.986V214.165H307.469V217.966C307.469 218.555 307.591 218.999 307.836 219.3C308.091 219.6 308.502 219.75 309.069 219.75C309.247 219.75 309.419 219.733 309.586 219.7C309.753 219.655 309.919 219.605 310.086 219.55L310.353 220.817C310.186 220.917 309.953 220.994 309.653 221.05C309.364 221.117 309.086 221.15 308.819 221.15ZM318.871 221V210.697H314.703V209.247H324.756V210.697H320.588V221H318.871ZM328.26 221.15C327.437 221.15 326.726 220.978 326.126 220.633C325.525 220.289 325.059 219.805 324.725 219.183C324.403 218.549 324.242 217.799 324.242 216.932C324.242 216.065 324.403 215.321 324.725 214.698C325.059 214.065 325.525 213.576 326.126 213.231C326.726 212.887 327.437 212.714 328.26 212.714C329.06 212.714 329.76 212.887 330.36 213.231C330.96 213.576 331.427 214.065 331.76 214.698C332.094 215.321 332.261 216.065 332.261 216.932C332.261 217.799 332.094 218.549 331.76 219.183C331.427 219.805 330.96 220.289 330.36 220.633C329.76 220.978 329.06 221.15 328.26 221.15ZM328.26 219.85C328.949 219.85 329.504 219.6 329.927 219.099C330.349 218.599 330.56 217.877 330.56 216.932C330.56 215.988 330.349 215.271 329.927 214.782C329.504 214.282 328.949 214.031 328.26 214.031C327.559 214.031 326.998 214.282 326.576 214.782C326.153 215.271 325.942 215.988 325.942 216.932C325.942 217.877 326.153 218.599 326.576 219.099C326.998 219.6 327.559 219.85 328.26 219.85ZM337.686 221.15C336.863 221.15 336.152 220.978 335.552 220.633C334.952 220.289 334.485 219.805 334.152 219.183C333.829 218.549 333.668 217.799 333.668 216.932C333.668 216.065 333.829 215.321 334.152 214.698C334.485 214.065 334.952 213.576 335.552 213.231C336.152 212.887 336.863 212.714 337.686 212.714C338.486 212.714 339.186 212.887 339.786 213.231C340.387 213.576 340.853 214.065 341.187 214.698C341.52 215.321 341.687 216.065 341.687 216.932C341.687 217.799 341.52 218.549 341.187 219.183C340.853 219.805 340.387 220.289 339.786 220.633C339.186 220.978 338.486 221.15 337.686 221.15ZM337.686 219.85C338.375 219.85 338.931 219.6 339.353 219.099C339.775 218.599 339.986 217.877 339.986 216.932C339.986 215.988 339.775 215.271 339.353 214.782C338.931 214.282 338.375 214.031 337.686 214.031C336.986 214.031 336.424 214.282 336.002 214.782C335.58 215.271 335.369 215.988 335.369 216.932C335.369 217.877 335.58 218.599 336.002 219.099C336.424 219.6 336.986 219.85 337.686 219.85ZM346.229 221.15C345.34 221.15 344.673 220.9 344.228 220.4C343.795 219.9 343.578 219.166 343.578 218.199V209.247H345.262V218.099C345.262 219.2 345.712 219.75 346.612 219.75C346.745 219.75 346.868 219.744 346.979 219.733C347.101 219.722 347.223 219.7 347.346 219.666L347.312 221.017C346.934 221.106 346.573 221.15 346.229 221.15ZM351.443 221.15C350.776 221.15 350.154 221.067 349.576 220.9C348.998 220.722 348.514 220.478 348.125 220.166L348.609 219.033C349.02 219.322 349.47 219.544 349.959 219.7C350.459 219.855 350.96 219.933 351.46 219.933C352.049 219.933 352.493 219.827 352.793 219.616C353.093 219.405 353.244 219.122 353.244 218.766C353.244 218.477 353.143 218.255 352.943 218.099C352.743 217.933 352.443 217.805 352.043 217.716L350.459 217.399C349.059 217.11 348.359 216.388 348.359 215.232C348.359 214.465 348.665 213.854 349.276 213.398C349.887 212.942 350.687 212.714 351.676 212.714C352.243 212.714 352.782 212.798 353.294 212.965C353.816 213.131 354.249 213.381 354.594 213.715L354.11 214.848C353.777 214.559 353.394 214.337 352.96 214.182C352.527 214.026 352.099 213.948 351.676 213.948C351.099 213.948 350.659 214.059 350.359 214.282C350.059 214.493 349.909 214.782 349.909 215.148C349.909 215.704 350.276 216.06 351.01 216.215L352.593 216.532C353.316 216.677 353.86 216.921 354.227 217.266C354.605 217.61 354.794 218.077 354.794 218.666C354.794 219.444 354.488 220.055 353.877 220.5C353.266 220.933 352.454 221.15 351.443 221.15Z" fill="#878787"/>
<rect x="150.915" y="203" width="25.0067" height="25.0067" rx="5.20972" fill="#2DC18C"/>
<path d="M158.742 215.765L161.689 218.629L168.12 212.377" stroke="#FEFEFE" stroke-width="1.56292" stroke-linecap="round" stroke-linejoin="round"/>
<path d="M214.17 29.0156L209.563 85.6028H342.523L342.337 29.0156H214.17Z" fill="#2D46C1"/>
<path d="M293.328 9.97656H259.642C256.207 9.97656 253.371 12.6528 253.171 16.0747L252.266 31.4664C252.053 35.1812 255.009 38.3234 258.737 38.3234H293.355C296.936 38.3234 299.839 35.4075 299.839 31.8259L299.799 16.4342C299.799 12.8658 296.896 9.97656 293.328 9.97656ZM265.287 25.6612C265.487 22.2393 268.323 19.5631 271.758 19.5631H280.333C283.901 19.5631 286.804 22.4524 286.817 26.034C286.831 29.6157 283.928 32.5316 280.333 32.5316H271.758C268.03 32.5182 265.074 29.376 265.287 25.6612Z" fill="#2D46C1"/>
<path d="M119.578 80.6706L118.915 141H449.915L449.69 79L119.578 80.6706Z" fill="white" fill-opacity="0.4"/>
<path d="M185.039 123L191.419 108.9H193.519L199.899 123H197.299L195.899 119.74H189.019L187.639 123H185.039ZM192.439 111.68L189.899 117.7H195.019L192.479 111.68H192.439ZM204.601 123.2C203.441 123.2 202.581 122.887 202.021 122.26C201.475 121.62 201.201 120.687 201.201 119.46V108.9H203.701V119.34C203.701 120.54 204.208 121.14 205.221 121.14C205.368 121.14 205.515 121.133 205.661 121.12C205.808 121.107 205.948 121.08 206.081 121.04L206.041 123.02C205.561 123.14 205.081 123.2 204.601 123.2ZM210.988 123.2C209.828 123.2 208.968 122.887 208.408 122.26C207.861 121.62 207.588 120.687 207.588 119.46V108.9H210.088V119.34C210.088 120.54 210.595 121.14 211.608 121.14C211.755 121.14 211.901 121.133 212.048 121.12C212.195 121.107 212.335 121.08 212.468 121.04L212.428 123.02C211.948 123.14 211.468 123.2 210.988 123.2ZM213.937 118.64V116.64H219.897V118.64H213.937ZM222.789 123V108.9H225.349V123H222.789ZM228.174 123V113.22H230.614V114.74C230.947 114.18 231.394 113.753 231.954 113.46C232.527 113.167 233.167 113.02 233.874 113.02C236.181 113.02 237.334 114.36 237.334 117.04V123H234.834V117.16C234.834 116.4 234.687 115.847 234.394 115.5C234.114 115.153 233.674 114.98 233.074 114.98C232.341 114.98 231.754 115.213 231.314 115.68C230.887 116.133 230.674 116.74 230.674 117.5V123H228.174ZM239.933 118.64V116.64H245.893V118.64H239.933ZM255.105 123.2C253.745 123.2 252.552 122.9 251.525 122.3C250.512 121.7 249.725 120.86 249.165 119.78C248.605 118.687 248.325 117.407 248.325 115.94C248.325 114.46 248.605 113.18 249.165 112.1C249.725 111.02 250.512 110.187 251.525 109.6C252.538 109 253.732 108.7 255.105 108.7C256.478 108.7 257.672 109 258.685 109.6C259.698 110.187 260.485 111.02 261.045 112.1C261.605 113.18 261.885 114.453 261.885 115.92C261.885 117.4 261.605 118.687 261.045 119.78C260.485 120.86 259.698 121.7 258.685 122.3C257.672 122.9 256.478 123.2 255.105 123.2ZM255.105 121C256.398 121 257.405 120.553 258.125 119.66C258.845 118.767 259.205 117.527 259.205 115.94C259.205 114.34 258.845 113.1 258.125 112.22C257.418 111.34 256.412 110.9 255.105 110.9C253.812 110.9 252.805 111.34 252.085 112.22C251.365 113.1 251.005 114.34 251.005 115.94C251.005 117.527 251.365 118.767 252.085 119.66C252.805 120.553 253.812 121 255.105 121ZM264.248 123V113.22H266.688V114.74C267.022 114.18 267.468 113.753 268.028 113.46C268.602 113.167 269.242 113.02 269.948 113.02C272.255 113.02 273.408 114.36 273.408 117.04V123H270.908V117.16C270.908 116.4 270.762 115.847 270.468 115.5C270.188 115.153 269.748 114.98 269.148 114.98C268.415 114.98 267.828 115.213 267.388 115.68C266.962 116.133 266.748 116.74 266.748 117.5V123H264.248ZM280.767 123.2C279.661 123.2 278.707 122.993 277.907 122.58C277.107 122.167 276.487 121.58 276.047 120.82C275.621 120.06 275.407 119.16 275.407 118.12C275.407 117.107 275.614 116.22 276.027 115.46C276.454 114.7 277.034 114.107 277.767 113.68C278.514 113.24 279.361 113.02 280.307 113.02C281.694 113.02 282.787 113.46 283.587 114.34C284.401 115.22 284.807 116.42 284.807 117.94V118.68H277.807C277.994 120.427 278.994 121.3 280.807 121.3C281.354 121.3 281.901 121.22 282.447 121.06C282.994 120.887 283.494 120.62 283.947 120.26L284.647 121.94C284.181 122.327 283.594 122.633 282.887 122.86C282.181 123.087 281.474 123.2 280.767 123.2ZM280.407 114.72C279.674 114.72 279.081 114.947 278.627 115.4C278.174 115.853 277.901 116.467 277.807 117.24H282.727C282.674 116.427 282.447 115.807 282.047 115.38C281.661 114.94 281.114 114.72 280.407 114.72ZM292.418 123V108.9H298.538C300.085 108.9 301.278 109.287 302.118 110.06C302.958 110.833 303.378 111.913 303.378 113.3C303.378 114.687 302.958 115.773 302.118 116.56C301.278 117.333 300.085 117.72 298.538 117.72H294.978V123H292.418ZM294.978 115.7H298.138C299.978 115.7 300.898 114.9 300.898 113.3C300.898 111.713 299.978 110.92 298.138 110.92H294.978V115.7ZM308.625 123.2C307.465 123.2 306.605 122.887 306.045 122.26C305.498 121.62 305.225 120.687 305.225 119.46V108.9H307.725V119.34C307.725 120.54 308.231 121.14 309.245 121.14C309.391 121.14 309.538 121.133 309.685 121.12C309.831 121.107 309.971 121.08 310.105 121.04L310.065 123.02C309.585 123.14 309.105 123.2 308.625 123.2ZM314.832 123.2C314.125 123.2 313.492 123.067 312.932 122.8C312.385 122.52 311.952 122.147 311.632 121.68C311.325 121.213 311.172 120.687 311.172 120.1C311.172 119.38 311.358 118.813 311.732 118.4C312.105 117.973 312.712 117.667 313.552 117.48C314.392 117.293 315.518 117.2 316.932 117.2H317.632V116.78C317.632 116.113 317.485 115.633 317.192 115.34C316.898 115.047 316.405 114.9 315.712 114.9C315.165 114.9 314.605 114.987 314.032 115.16C313.458 115.32 312.878 115.573 312.292 115.92L311.572 114.22C311.918 113.98 312.325 113.773 312.792 113.6C313.272 113.413 313.772 113.273 314.292 113.18C314.825 113.073 315.325 113.02 315.792 113.02C317.218 113.02 318.278 113.353 318.972 114.02C319.665 114.673 320.012 115.693 320.012 117.08V123H317.672V121.44C317.445 121.987 317.085 122.42 316.592 122.74C316.098 123.047 315.512 123.2 314.832 123.2ZM315.352 121.48C316.005 121.48 316.545 121.253 316.972 120.8C317.412 120.347 317.632 119.773 317.632 119.08V118.64H316.952C315.698 118.64 314.825 118.74 314.332 118.94C313.852 119.127 313.612 119.473 313.612 119.98C313.612 120.42 313.765 120.78 314.072 121.06C314.378 121.34 314.805 121.48 315.352 121.48ZM327.029 123.2C324.442 123.2 323.149 121.92 323.149 119.36V115.1H321.269V113.22H323.149V110.3H325.649V113.22H328.609V115.1H325.649V119.22C325.649 119.86 325.789 120.34 326.069 120.66C326.349 120.98 326.802 121.14 327.429 121.14C327.616 121.14 327.809 121.12 328.009 121.08C328.209 121.027 328.416 120.973 328.629 120.92L329.009 122.76C328.769 122.893 328.462 123 328.089 123.08C327.729 123.16 327.376 123.2 327.029 123.2ZM330.846 123V115.1H328.966V113.22H330.846V113.2C330.846 111.813 331.206 110.767 331.926 110.06C332.659 109.353 333.792 108.953 335.326 108.86L336.306 108.8L336.466 110.64L335.546 110.7C334.746 110.753 334.179 110.953 333.846 111.3C333.512 111.633 333.346 112.133 333.346 112.8V113.22H336.006V115.1H333.346V123H330.846ZM341.677 123.2C340.664 123.2 339.784 122.993 339.037 122.58C338.29 122.167 337.71 121.58 337.297 120.82C336.884 120.047 336.677 119.14 336.677 118.1C336.677 117.06 336.884 116.16 337.297 115.4C337.71 114.64 338.29 114.053 339.037 113.64C339.784 113.227 340.664 113.02 341.677 113.02C342.69 113.02 343.57 113.227 344.317 113.64C345.064 114.053 345.644 114.64 346.057 115.4C346.47 116.16 346.677 117.06 346.677 118.1C346.677 119.14 346.47 120.047 346.057 120.82C345.644 121.58 345.064 122.167 344.317 122.58C343.57 122.993 342.69 123.2 341.677 123.2ZM341.677 121.3C342.424 121.3 343.024 121.033 343.477 120.5C343.93 119.953 344.157 119.153 344.157 118.1C344.157 117.033 343.93 116.24 343.477 115.72C343.024 115.187 342.424 114.92 341.677 114.92C340.93 114.92 340.33 115.187 339.877 115.72C339.424 116.24 339.197 117.033 339.197 118.1C339.197 119.153 339.424 119.953 339.877 120.5C340.33 121.033 340.93 121.3 341.677 121.3ZM348.74 123V113.22H351.18V114.94C351.66 113.78 352.687 113.14 354.26 113.02L355.02 112.96L355.18 115.08L353.74 115.22C352.1 115.38 351.28 116.22 351.28 117.74V123H348.74ZM356.612 123V113.22H359.052V114.72C359.346 114.187 359.752 113.773 360.272 113.48C360.792 113.173 361.392 113.02 362.072 113.02C363.539 113.02 364.499 113.66 364.952 114.94C365.259 114.34 365.699 113.873 366.272 113.54C366.846 113.193 367.499 113.02 368.232 113.02C370.432 113.02 371.532 114.36 371.532 117.04V123H369.032V117.14C369.032 116.393 368.906 115.847 368.652 115.5C368.412 115.153 367.999 114.98 367.412 114.98C366.759 114.98 366.246 115.213 365.872 115.68C365.499 116.133 365.312 116.767 365.312 117.58V123H362.812V117.14C362.812 116.393 362.686 115.847 362.432 115.5C362.192 115.153 361.786 114.98 361.212 114.98C360.559 114.98 360.046 115.213 359.672 115.68C359.299 116.133 359.112 116.767 359.112 117.58V123H356.612Z" fill="#2D46C1"/>
<path d="M211.494 61.877L209.563 85.6036H342.523L342.444 61.877H211.494Z" fill="#FFA235"/>
<path d="M77.5325 233.11C76.667 235.014 76.5339 237.171 77.173 239.155L78.2781 246.998L79.6229 247.903L84.6425 249.98C84.0966 248.436 84.6425 246.838 84.6425 246.838L86.8527 238.716C86.8527 238.716 90.2746 225.015 80.981 225.601C81.0342 214.443 77.9186 216.281 77.9186 216.281L77.7056 225.934L77.5325 233.11Z" fill="#CE9777"/>
<path d="M54.3903 260.246C54.3903 260.246 60.8878 285.064 66.44 285.504C71.9789 285.943 77.7575 246.186 77.7575 246.186L85.2936 247.091C85.2936 247.091 88.2228 304.264 71.3132 305.303C54.4036 306.341 52.1667 293.705 52.1667 293.705L54.3903 260.246Z" fill="#2EB886"/>
<path d="M53.6691 328.096H9.42456C9.42456 328.096 9.42456 295.821 9.42456 260.884C22.0735 241.591 37.8247 246.85 37.8247 246.85C37.8247 246.85 52.1512 247.103 54.3881 260.245C54.3881 269.751 53.6691 328.096 53.6691 328.096Z" fill="#2DC18C"/>
<path d="M32.6461 237.916L31.9937 247.423L32.2999 247.716C35.4155 250.685 40.2887 250.751 43.4975 247.875L43.644 240.725L32.6461 237.916Z" fill="#AB7F66"/>
<path d="M29.1677 218.064L29.9666 233.776C31.5244 233.709 32.4431 235.387 32.1502 236.865C32.31 237.224 32.4032 237.624 32.4165 238.023C35.1327 239.967 40.0591 242.497 46.4102 241.285C56.3562 239.381 50.3513 220.168 50.3513 220.168L29.1677 218.064Z" fill="#C18F72"/>
<path d="M24.1739 229.861C24.094 228.702 22.5229 226.266 21.6574 225.507C16.0253 220.634 21.0583 217.092 22.8557 215.947C24.8263 214.682 24.4402 211.1 26.9966 209.09C30.8978 206.028 34.6658 209.196 37.169 208.744C39.6721 208.278 41.2166 204.949 44.8515 206.72C48.4864 208.477 48.087 211.34 49.2453 212.538C50.417 213.737 52.5474 210.408 56.1024 214.216C61.4948 219.995 50.923 222.471 50.923 222.471C50.923 222.471 45.1311 224.868 37.4752 221.859C36.4233 221.446 35.1718 221.672 34.506 222.591C32.6819 225.094 32.6553 238.196 32.6553 238.196L30.0989 236.065C30.0856 236.065 24.5201 235.133 24.1739 229.861Z" fill="#212B53"/>
<path d="M30.1427 231.152C30.6486 232.39 32.06 232.976 33.2849 232.47C34.5232 231.964 35.109 230.553 34.6031 229.328C34.0971 228.09 32.6858 227.504 31.4608 228.01C30.2226 228.503 29.6367 229.914 30.1427 231.152Z" fill="#C18F72"/>
<path d="M43.6484 454.826C43.6484 454.826 46.1382 458.275 57.895 461.27C60.4781 461.936 63.2742 462.376 63.2742 466.65C57.7885 466.65 51.6638 466.65 51.6638 466.65L39.8005 464.599V466.65H33.3961C33.3961 466.65 31.612 456.171 35.3534 454.826C38.8285 454.826 43.6484 454.826 43.6484 454.826Z" fill="#212B53"/>
<path d="M44.2622 447.289L43.6498 454.812C41.3064 456.436 38.244 456.529 35.7941 455.078L35.3547 454.812V447.289H44.2622Z" fill="#CE9777"/>
<path d="M10.6774 454.826C10.6774 454.826 13.1673 458.275 24.9241 461.27C27.5071 461.936 30.3032 462.376 30.3032 466.65C24.8176 466.65 18.6928 466.65 18.6928 466.65L6.82951 464.599V466.65H0.425166C0.425166 466.65 -1.35899 456.171 2.38242 454.826C5.85754 454.826 10.6774 454.826 10.6774 454.826Z" fill="#212B53"/>
<path d="M11.2913 447.289L10.6788 454.812C8.33543 456.436 5.27307 456.529 2.82317 455.078L2.38379 454.812V447.289H11.2913Z" fill="#CE9777"/>
<path d="M25.5912 295.649C18.9338 281.762 28.2541 269.752 28.2541 269.752L9.45382 260.885C9.45382 260.885 -3.80756 291.495 13.1153 307.14C30.0383 322.784 53.0193 320.122 53.0193 320.122V311.307C53.0193 311.294 32.2485 309.536 25.5912 295.649Z" fill="#2DC18C"/>
<path d="M51.6609 318.896L62.2593 319.123C66.56 318.883 69.4226 312.465 70.1416 307.685C70.2481 306.966 69.5424 306.394 68.8634 306.634C65.2684 307.885 56.0281 311.161 53.6315 312.638L51.6609 318.896Z" fill="#CE9777"/>
<path d="M53.6731 328.096C66.8679 365.363 46.2435 447.874 46.2435 447.874H34.4867C34.4867 447.874 40.0256 330.865 24.7271 328.096C48.1209 328.096 43.6471 328.096 53.6731 328.096Z" fill="#1F37B0"/>
<path d="M23.2322 286.395C23.3653 289.297 24.0444 292.426 25.5889 295.662C32.2462 309.549 54.0955 311.386 54.0955 311.386V320.294C54.0955 320.294 30.036 322.783 13.1131 307.152C6.97502 301.48 4.81805 293.851 4.55176 286.408H23.2322V286.395Z" fill="#2DC18C"/>
<path d="M79.5525 234.294C79.5525 234.294 77.116 233.562 76.7298 229.101C76.3437 224.641 74.24 226.025 74.24 226.025C74.24 226.025 75.3318 243.587 78.1279 244.253C80.9373 244.906 79.5525 234.294 79.5525 234.294Z" fill="#CE9777"/>
<path d="M40.6574 328.096C44.2523 373.792 15.08 447.874 15.08 447.874H1.09961C1.09961 447.874 10.5929 400.501 10.7927 356.043C10.8326 346.417 10.4465 336.937 9.42126 328.096C19.0611 328.096 31.8964 328.096 40.6574 328.096Z" fill="#2D46C1"/>
<path d="M53.9796 312.851C53.1141 312.784 32.756 310.907 26.0188 296.833C19.2683 282.747 28.6551 270.364 28.7616 270.244L29.8135 271.056C29.7203 271.176 20.8394 282.92 27.2305 296.261C33.6481 309.642 53.8997 311.506 54.1127 311.52L53.9796 312.851Z" fill="#24BA84"/>
<path d="M49.877 321.679C42.5273 321.679 26.1237 320.214 13.315 308.364C-3.75435 292.586 9.36057 261.67 9.49371 261.363L10.7187 261.896C10.5855 262.202 -2.1566 292.253 14.2204 307.392C30.7306 322.651 53.3654 320.227 53.5918 320.201L53.7516 321.519C53.685 321.519 52.2603 321.679 49.877 321.679Z" fill="#24BA84"/>
<path d="M499.605 241.803L500.498 253.094L511.575 253.573L507.115 236.064L499.605 241.803Z" fill="#D89C78"/>
<path d="M468.448 250.551C468.274 250.018 467.489 248.274 464.4 245.877C461.617 243.734 454.547 240.964 457.609 238.834C461.404 239.14 465.891 239.034 465.891 239.034C468.168 239.446 470.844 242.282 472.162 244.36L475.478 251.257C475.478 251.257 473.96 254.638 473.906 254.812L472.322 254.505C471.257 252.987 469.925 251.656 468.448 250.551Z" fill="#D89C78"/>
<path d="M468.286 248.607C468.286 248.607 468.286 248.407 468.193 248.048C468.686 248.141 469.178 248.208 469.658 248.261C471.216 249.22 472.813 250.125 474.384 251.057C473.719 251.883 472.773 253.041 472.733 253.134L461.203 249.047C461.203 249.047 461.07 247.475 463.64 247.529C466.196 247.569 468.286 248.607 468.286 248.607Z" fill="#D89C78"/>
<path d="M485.852 273.943L468.064 257.42L474.202 248.246L498.528 259.723L487.943 278.337L485.852 273.943Z" fill="url(#paint2_linear)"/>
<path d="M505.597 246.356C530.948 241.097 526.528 325.046 526.528 325.046H486.424C486.424 325.046 485.852 310.426 484.387 291.892C483.135 276.194 491.95 258.446 505.597 246.356Z" fill="url(#paint3_linear)"/>
<path d="M492.387 463.932C492.387 463.932 488.432 467.593 479.432 469.897C477.448 470.403 475.304 469.724 475.304 472.999C479.511 472.999 486.235 472.999 486.235 472.999L495.329 471.428V472.999H500.242C500.242 472.999 501.614 464.97 498.738 463.945C496.088 463.932 492.387 463.932 492.387 463.932Z" fill="#212B53"/>
<path d="M492.934 458.166L492.375 463.931C494.172 465.17 496.516 465.249 498.393 464.131L498.726 463.931L499.751 458.166H492.934Z" fill="#D89C78"/>
<path d="M435.535 272.666C434.976 272.612 433.098 272.239 430.076 269.763C427.36 267.539 423.086 261.255 421.688 264.717C422.833 268.352 423.738 272.745 423.738 272.745C424.643 274.876 428.012 276.846 430.329 277.672L437.785 279.363C437.785 279.363 440.741 277.126 440.901 277.046L440.248 275.568C438.531 274.849 436.946 273.851 435.535 272.666Z" fill="#F8B68F"/>
<path d="M433.608 272.931C433.608 272.931 433.408 272.971 433.035 272.958C433.235 273.411 433.408 273.877 433.568 274.343C434.846 275.661 436.084 277.006 437.349 278.324C438.002 277.485 438.92 276.313 439 276.247L432.436 265.928C432.436 265.928 430.878 266.154 431.491 268.644C432.13 271.134 433.608 272.931 433.608 272.931Z" fill="#F8B68F"/>
<path d="M530.971 455.863C530.971 455.863 527.017 459.525 518.016 461.815C516.032 462.321 513.902 461.642 513.902 464.917C518.109 464.917 524.833 464.917 524.833 464.917L533.927 463.346V464.917H538.84C538.84 464.917 540.212 456.889 537.336 455.863C534.673 455.863 530.971 455.863 530.971 455.863Z" fill="#212B53"/>
<path d="M531.532 450.098L530.973 455.863C532.77 457.101 535.114 457.181 536.991 456.063L537.324 455.863L538.349 450.098H531.532Z" fill="#D89C78"/>
<path d="M526.523 325.059C526.523 325.059 523.314 342.061 526.19 377.252C526.696 383.47 528.107 389.581 530.371 395.387C538.093 415.185 539.158 451.721 539.158 451.721H530.317L499.175 362.672L526.523 325.059Z" fill="#212B53"/>
<path d="M511.575 274.078C511.575 274.078 504.638 299.908 485.838 302.292C467.038 304.675 436.108 280.882 436.108 280.882L439.503 274.078L472.137 283.212C477.103 284.61 482.376 282.373 484.839 277.832L494.665 259.725L511.575 274.078Z" fill="url(#paint4_linear)"/>
<path d="M486.422 325.06L492.254 459.711H500.163C500.163 459.711 509.03 428.315 508.364 403.563C508.151 395.721 509.483 387.919 512.412 380.635C524.462 350.664 526.539 325.047 526.539 325.047H486.422V325.06Z" fill="#043C5E"/>
<path d="M417.426 259.725L445.8 281.095L478.261 255.717L451.751 236.064L417.426 259.725Z" fill="white"/>
<path d="M455.142 286.434C455.249 283.705 455.861 281.201 456.86 278.938L439.511 274.078L436.116 280.882C436.116 280.882 444.89 287.632 455.928 293.584C455.329 291.201 455.049 288.791 455.142 286.434Z" fill="url(#paint5_linear)"/>
<path d="M511.08 273.945C511.013 274.198 504.01 299.469 485.782 301.786C468.766 303.943 441.231 284.051 436.997 280.896C436.784 281.162 436.571 281.428 436.345 281.681C440.419 284.743 465.424 302.971 483.066 302.971C484.038 302.971 484.997 302.918 485.915 302.798C504.835 300.401 511.999 274.478 512.079 274.212L511.08 273.945Z" fill="#C0E4EF"/>
<path d="M430.692 277.753L436.804 279.138C437.39 277.66 438.135 276.275 439.041 274.997C437.789 274.358 436.617 273.572 435.539 272.667C434.98 272.613 433.102 272.241 430.093 269.777C430.626 272.014 430.865 274.291 430.786 276.515C430.759 276.927 430.732 277.34 430.692 277.753Z" fill="#F8B68F"/>
<path d="M438.617 275.636L432.452 265.943C432.452 265.943 430.894 266.17 431.507 268.66C432.132 271.136 433.61 272.947 433.61 272.947C433.61 272.947 433.411 272.987 433.038 272.973C433.237 273.426 433.411 273.892 433.57 274.358C434.795 275.623 435.994 276.915 437.205 278.193C437.618 277.301 438.097 276.449 438.617 275.636Z" fill="#F8B68F"/>
<path d="M466.497 244.984C466.43 244.984 466.35 244.998 466.284 244.998C468.015 246.649 468.547 247.834 468.68 248.246C469.399 248.779 470.078 249.378 470.718 250.017C470.784 249.392 470.904 248.779 471.024 248.167C469.386 247.328 467.868 246.249 466.497 244.984Z" fill="#D89C78"/>
<path d="M467.598 245.943C466.746 245.637 465.401 245.251 463.857 245.224C461.3 245.171 461.42 246.755 461.42 246.755L470.7 250.044C470.767 249.405 470.887 248.792 471.007 248.18C469.808 247.554 468.663 246.795 467.598 245.943Z" fill="#D89C78"/>
<path d="M499.604 252.375V246.823L508.871 242.975L512.239 247.235L499.604 252.375Z" fill="white"/>
<path d="M494.529 246.251C492.971 246.37 491.52 246.277 490.695 245.678C485.462 239.047 488.484 219.342 488.484 219.342L504.981 220.5L506.885 233.282C507.391 236.691 506.246 240.153 503.796 242.576C501.107 244.653 497.898 245.984 494.529 246.251Z" fill="#D89C78"/>
<path d="M497.404 221.645C497.404 221.645 492.144 223.23 486.379 222.83C480.614 222.431 483.57 215.814 483.57 215.814C483.57 215.814 487.963 217.278 495.273 215.374C500.213 214.096 501.451 212.978 504.86 214.336C509.48 216.2 509.28 224.215 509.28 224.215L508.668 241.191L507.749 242.376C507.749 242.376 506.471 231.378 506.111 227.997C505.006 226.559 503.981 226.665 503.222 227.144C502.41 227.65 502.024 228.636 502.13 229.581L504.008 246.943C504.008 246.943 493.462 252.895 490.56 252.336C487.657 251.776 488.15 238.715 488.15 238.715C488.15 238.715 491.239 236.957 494.062 239.5C496.858 242.017 499.561 238.795 499.561 238.795L497.404 221.645Z" fill="#212B53"/>
<path d="M504.564 226.545C503.313 226.572 502.247 227.89 502.181 229.488C502.114 231.086 503.086 232.351 504.338 232.324C505.589 232.297 506.655 230.979 506.721 229.381C506.788 227.784 505.816 226.519 504.564 226.545Z" fill="#D89C78"/>
<path d="M501.839 46.0609H371.169C371.169 46.0609 364.086 37.1002 371.169 31.0687C375.083 27.74 379.704 28.0862 383.046 29.0581C385.229 29.6972 387.413 28.2193 387.892 25.9958C388.691 22.3076 391.141 17.4877 398.171 14.6384C405.095 11.829 409.462 16.1163 412.005 20.5101C412.844 21.9614 415.054 21.7351 415.56 20.1507C417.744 13.2004 425.386 4 450.511 4C482.453 4 478.911 20.9895 476.048 28.0462C475.556 29.2712 476.607 30.5361 477.899 30.2698C482.825 29.2179 491.973 27.8465 496.074 31.0687C501.839 35.5823 501.839 46.0609 501.839 46.0609Z" fill="url(#paint6_linear)"/>
<path d="M448.619 295.608L462.506 304.462L468.364 292.253L450.416 271.682L448.619 295.608Z" fill="#FFEBB7"/>
<path d="M375.32 214.282L392.323 258.713L403.175 250.631L378.915 209.729L375.32 214.282Z" fill="#AF8267"/>
<path d="M374.335 199.197C375.679 200.289 376.572 201.82 376.838 203.524L378.915 209.729L378.249 210.9L375.307 214.282C375.134 212.938 374.148 211.966 374.148 211.966L369.528 206.786C369.528 206.786 361.939 197.932 369.022 194.936C364.868 186.721 367.837 186.934 367.837 186.934L371.552 193.978L374.335 199.197Z" fill="#AF8267"/>
<path d="M373.267 200.822C373.267 200.822 374.798 199.384 373.44 195.949C372.082 192.514 374.145 192.754 374.145 192.754C374.145 192.754 379.817 206.121 377.993 207.639C376.156 209.171 373.267 200.822 373.267 200.822Z" fill="#AF8267"/>
<path d="M424.051 267.835L418.965 268.234L401.669 248.062L392.323 258.701C392.323 258.701 400.897 274.892 413.44 291.641C414.158 295.05 417.873 329.322 417.873 329.322H447.871C447.871 329.322 443.091 304.17 451.533 290.177C459.961 276.183 424.051 267.835 424.051 267.835Z" fill="#FFEBB7"/>
<path d="M447.126 400.408C447.126 400.408 446.966 470.27 446.966 469.911C446.966 469.538 442.439 469.911 442.439 469.911C442.439 469.911 435.782 433.362 434.317 416.892C432.839 400.408 434.317 399.316 434.317 399.316L447.126 400.408Z" fill="#AF8267"/>
<path d="M432.556 400.408C432.556 400.408 432.396 470.27 432.396 469.911C432.396 469.538 427.869 469.911 427.869 469.911C427.869 469.911 421.212 433.362 419.747 416.892C418.269 400.408 419.747 399.316 419.747 399.316L432.556 400.408Z" fill="#AF8267"/>
<path d="M423.291 233.242L441.492 239.62L439.695 253.214C439.668 253.401 439.615 253.587 439.588 253.787C439.242 253.853 438.882 253.92 438.536 254C438.483 254.013 438.43 254.026 438.363 254.053C438.31 254.066 438.257 254.08 438.203 254.093C434.009 255.131 431.027 258.593 429.695 262.614C427.112 263.054 424.436 263.054 421.813 262.508C420.029 262.135 418.418 261.576 417.672 260.724C413.837 252.322 423.291 233.242 423.291 233.242Z" fill="#AF8267"/>
<path d="M422.824 244.679C424.462 247.955 424.768 251.829 423.197 255.145C420.721 260.377 420.934 266.262 422.585 269.484C423.703 271.681 426.646 273.878 429.255 275.503C431.998 277.207 433.796 280.083 434.089 283.292C434.488 287.712 434.914 293.145 438.695 294.436C449.68 298.217 453.714 297.858 455.179 288.697C455.552 286.354 455.419 282.919 454.234 279.723C452.782 275.836 452.902 271.508 454.566 267.7C455.672 265.184 456.644 262.428 456.644 260.524C456.644 258.447 454.74 255.531 452.742 253.041C450.253 249.939 449.161 245.984 449.507 242.016C449.853 238.049 449.307 232.989 445.286 229.554C437.777 223.149 421.12 233.229 421.12 233.229C421.12 233.229 419.522 238.102 422.824 244.679Z" fill="#212B53"/>
<path d="M468.36 292.254L475.031 299.164C479.465 303.758 480.836 310.135 475.51 313.651L453.714 330.96L455.711 334.714C457.402 337.87 457.083 341.731 454.913 344.58L452.609 347.603L447.51 330.094L463.314 310.362C465.005 308.591 464.606 305.715 462.502 304.477L468.36 292.254Z" fill="#AF8267"/>
<path d="M417.855 329.32C417.855 329.32 413.461 340.717 413.461 352.261C413.461 358.599 418.96 406.438 418.96 406.438C418.96 406.438 442.234 406.438 447.52 406.438C445.589 371.115 456.294 366.774 456.294 351.502C456.294 340.731 447.853 329.307 447.853 329.307H417.855V329.32Z" fill="#2D46C1"/>
<path d="M446.964 464.598C446.964 464.598 449.467 466.555 449.001 469.058C448.549 471.561 447.896 477.42 447.896 477.42H445.327L445.407 471.961C445.393 471.601 439.894 477.42 438.976 477.42H425.395C425.395 477.42 424.489 473.731 432.465 472.546C440.44 471.361 446.964 464.598 446.964 464.598Z" fill="#212B53"/>
<path d="M432.455 464.598C432.455 464.598 434.958 466.555 434.492 469.058C434.04 471.561 433.387 477.42 433.387 477.42H430.818L430.897 471.961C430.884 471.601 425.385 477.42 424.466 477.42H410.885C410.885 477.42 409.98 473.731 417.956 472.546C425.931 471.361 432.455 464.598 432.455 464.598Z" fill="#212B53"/>
<path d="M125.988 266.901L137.479 288.551L124.817 287.938L123.925 266.209L125.988 266.901Z" fill="#F8B68F"/>
<path d="M107.935 257.316L118.547 257.303L122.954 325.913H103.927L107.935 257.316Z" fill="white"/>
<path d="M88.4492 458.74C88.4492 458.74 85.8263 460.804 86.3056 463.427C86.7849 466.05 87.464 472.215 87.464 472.215H90.1668L90.0869 466.476C90.1003 466.103 95.8788 472.215 96.8508 472.215H111.124C111.124 472.215 112.069 468.34 103.694 467.102C95.3063 465.85 88.4492 458.74 88.4492 458.74Z" fill="#043C5E"/>
<path d="M94.638 456.116L96.5686 461.149C97.0479 462.534 97.9667 463.706 99.2049 464.491C100.563 465.357 102.693 466.582 105.876 467.514C102.001 470.829 95.823 467.367 92.2946 464.917C90.577 463.719 89.3521 461.948 88.8461 459.911L88.0339 456.09H94.638V456.116Z" fill="#F8B68F"/>
<path d="M115.649 458.74C115.649 458.74 113.026 460.804 113.505 463.427C113.984 466.05 114.663 472.215 114.663 472.215H117.366L117.286 466.476C117.3 466.103 123.078 472.215 124.05 472.215H138.324C138.324 472.215 139.269 468.34 130.894 467.102C122.506 465.85 115.649 458.74 115.649 458.74Z" fill="#043C5E"/>
<path d="M121.827 456.116L123.758 461.149C124.237 462.534 125.156 463.706 126.394 464.491C127.752 465.357 129.883 466.582 133.065 467.514C129.19 470.829 123.012 467.367 119.484 464.917C117.766 463.719 116.542 461.948 116.036 459.911L115.223 456.09H121.827V456.116Z" fill="#F8B68F"/>
<path d="M99.805 325.912C99.805 325.912 98.0208 336.164 108.273 386.574C99.9647 412.843 113.266 456.795 113.266 456.795H122.959L129.563 325.912H99.805Z" fill="#1F2239"/>
<path d="M117.388 257.316L120.837 340.573L132.248 335.686C132.248 335.686 127.108 320.055 127.601 298.352C125.857 282.654 134.764 290.923 123.846 260.698C119.772 257.303 117.388 257.316 117.388 257.316Z" fill="#2D46C1"/>
<path d="M118.883 248.715L117.551 255.732C116.966 258.821 113.451 260.352 110.788 258.688L106.101 255.759L114.462 236.865L118.883 248.715Z" fill="#F4A086"/>
<path d="M90.4667 325.912C90.4667 325.912 77.7645 336.164 88.0301 386.574C79.7218 412.843 87.0582 456.795 87.0582 456.795H95.7526L120.225 325.912H90.4667Z" fill="#24273F"/>
<path d="M107.937 250.26C107.937 250.26 97.2186 256.278 93.89 261.657C90.7211 266.783 89.616 278.447 89.3097 288.832C88.897 303.106 82 340.56 82 340.56H110.733L111.452 258.994L107.937 250.26Z" fill="#2D46C1"/>
<path d="M129.093 227.664C122.595 226.013 116.338 232.684 116.338 232.684L111.451 259.007L103.928 247.423C103.928 247.423 103.502 231.685 110.772 221.247C115.978 214.935 125.964 216.746 131.01 222.884C133.46 225.867 133.979 229.994 133.74 233.789C133.42 238.888 131.982 268.114 131.982 268.114L117.096 257.09C117.096 257.09 117.456 254.12 118.881 248.715C121.33 239.408 133.447 228.769 129.093 227.664Z" fill="#212B53"/>
<path d="M114.396 232.271C115.355 231.884 116.593 232.524 117.166 233.722C117.738 234.907 117.419 236.185 116.46 236.585C115.501 236.971 114.263 236.332 113.691 235.133C113.118 233.935 113.438 232.657 114.396 232.271Z" fill="#F8B68F"/>
<path d="M121.371 249.952C122.583 250.391 123.768 250.644 124.553 250.365C130.198 246.264 132.249 229.913 132.249 229.913L127.775 225.16L118.868 227.117L114.474 236.864C113.302 239.46 113.435 242.469 114.833 244.959C116.484 247.196 118.735 248.98 121.371 249.952Z" fill="#F8B68F"/>
<path d="M130.588 227.318C130.122 232.271 116.355 232.67 116.355 232.67L115.636 225.973L123.665 221.553L130.016 225.374C130.016 225.374 130.655 226.492 130.588 227.318Z" fill="#212B53"/>
<path d="M130.281 228.277C129.828 230.114 131.692 233.323 131.692 233.323L132.784 231.339L132.757 229.622L131.679 228.29C131.679 228.304 130.733 226.44 130.281 228.277Z" fill="#212B53"/>
<path d="M96.8156 261.656C82.9152 263.281 89.4793 299.137 92.4618 313.863C93.1941 317.484 96.9088 319.695 100.424 318.59C112.514 314.768 130.195 298.937 130.195 298.937L127.399 295.409L103.926 300.894C103.926 300.894 112.94 259.779 96.8156 261.656Z" fill="#F8B68F"/>
<path d="M124.634 286.994L120.094 315.088C119.96 315.9 120.586 316.645 121.412 316.645H139.387C140.039 316.645 140.611 316.166 140.705 315.514L145.165 287.42C145.298 286.608 144.672 285.875 143.847 285.875H125.952C125.3 285.862 124.74 286.341 124.634 286.994Z" fill="white"/>
<path d="M144.577 299.431C144.684 298.445 144.59 297.82 144.258 295.783C143.832 293.12 143.938 288.965 141.222 291.043C138.652 294.265 138.359 297.687 138.359 297.687C137.84 299.577 138.998 302.2 140.077 303.625L141.941 307.686C141.954 307.673 145.176 303.931 144.577 299.431Z" fill="#F8B68F"/>
<path d="M132.824 296.782C132.824 297.54 133.437 298.153 134.196 298.153C134.955 298.153 135.567 297.54 135.567 296.782C135.567 296.023 134.955 295.41 134.196 295.41C133.437 295.41 132.824 296.023 132.824 296.782Z" fill="url(#paint7_linear)"/>
<defs>
<linearGradient id="paint0_linear" x1="423.066" y1="54.5265" x2="533.45" y2="54.5265" gradientUnits="userSpaceOnUse">
<stop stop-color="#E0F0EB"/>
<stop offset="1" stop-color="#C0E4EF"/>
</linearGradient>
<linearGradient id="paint1_linear" x1="62.91" y1="22.2452" x2="173.294" y2="22.2452" gradientUnits="userSpaceOnUse">
<stop stop-color="#E0F0EB"/>
<stop offset="1" stop-color="#C0E4EF"/>
</linearGradient>
<linearGradient id="paint2_linear" x1="468.07" y1="263.288" x2="498.527" y2="263.288" gradientUnits="userSpaceOnUse">
<stop stop-color="#E0F0EB"/>
<stop offset="1" stop-color="#C0E4EF"/>
</linearGradient>
<linearGradient id="paint3_linear" x1="524.348" y1="255.278" x2="501.969" y2="311.261" gradientUnits="userSpaceOnUse">
<stop stop-color="#E0F0EB"/>
<stop offset="1" stop-color="#C0E4EF"/>
</linearGradient>
<linearGradient id="paint4_linear" x1="488.567" y1="240.976" x2="466.189" y2="296.959" gradientUnits="userSpaceOnUse">
<stop stop-color="#E0F0EB"/>
<stop offset="1" stop-color="#C0E4EF"/>
</linearGradient>
<linearGradient id="paint5_linear" x1="467.823" y1="232.686" x2="445.444" y2="288.669" gradientUnits="userSpaceOnUse">
<stop stop-color="#E0F0EB"/>
<stop offset="1" stop-color="#C0E4EF"/>
</linearGradient>
<linearGradient id="paint6_linear" x1="501.833" y1="25.0293" x2="368.016" y2="25.0293" gradientUnits="userSpaceOnUse">
<stop stop-color="#E0F0EB"/>
<stop offset="1" stop-color="#C0E4EF"/>
</linearGradient>
<linearGradient id="paint7_linear" x1="132.825" y1="296.784" x2="135.567" y2="296.784" gradientUnits="userSpaceOnUse">
<stop stop-color="#E0F0EB"/>
<stop offset="1" stop-color="#C0E4EF"/>
</linearGradient>
</defs>
</svg>
