<svg xmlns="http://www.w3.org/2000/svg" width="32" height="31" fill="none"><path fill="#2DC18C" d="M16.077 0C7.283 0 .154 6.94.154 15.5c0 8.56 7.13 15.5 15.923 15.5 8.794 0 15.924-6.94 15.924-15.5C32 6.94 24.87 0 16.077 0zm-4.396 23.236H8.378V12.9h3.303v10.335zm-1.65-11.747c-1.06 0-1.915-.834-1.915-1.862s.854-1.863 1.914-1.863c1.056 0 1.913.835 1.913 1.863s-.857 1.862-1.913 1.862zm14.008 11.747h-3.3V18.21c0-1.198-.02-2.74-1.714-2.74-1.717 0-1.979 1.306-1.979 2.654v5.112h-3.295V12.9h3.162v1.413h.046c.44-.812 1.516-1.67 3.122-1.67 3.34 0 3.958 2.14 3.958 4.924v5.668z"/></svg>