<svg xmlns="http://www.w3.org/2000/svg" width="42" height="38" fill="none"><path stroke="#2DC18C" stroke-linecap="round" stroke-linejoin="round" stroke-width="2.125" d="M20.526 9.195v2.452M20.526 28.808v-2.452M25.342 15.076c-.126-1.914-1.685-3.432-3.607-3.432h-2.653c-1.879 0-3.4 1.541-3.4 3.442 0 1.579 1.062 2.956 2.573 3.34l4.538 1.154c1.512.384 2.572 1.761 2.572 3.34 0 1.903-1.522 3.442-3.4 3.442h-2.653c-1.925 0-3.484-1.522-3.608-3.44"/><path stroke="#24273F" stroke-linecap="round" stroke-linejoin="round" stroke-width="2.125" d="M9.138 6.982c3.039-3.078 7.238-4.98 11.877-4.98 9.275 0 16.796 7.612 16.796 17.002 0 1.31-.16 2.58-.438 3.807"/><path stroke="#24273F" stroke-linecap="round" stroke-linejoin="round" stroke-width="2.125" d="M34.77 20.182l3.035 3.073 3.035-3.073M32.885 31.02c-3.04 3.079-7.238 4.981-11.877 4.981C11.732 36.001 4.21 28.39 4.21 19c0-1.31.161-2.581.438-3.807"/><path stroke="#24273F" stroke-linecap="round" stroke-linejoin="round" stroke-width="2.125" d="M7.243 17.82l-3.035-3.073-3.035 3.073"/></svg>