<svg xmlns="http://www.w3.org/2000/svg" width="100" height="40" fill="none"><path fill="#2D46C1" d="M14.887 4.89a.628.628 0 01.37-.62c.053-.025.126-.013.156-.08l.15-.001c.006.01.01.026.019.028.325.072.402.126.56.399 3.343.337 6.049 1.791 8.108 4.375.417.003.65.142.743.444a.616.616 0 01-.255.704.677.677 0 01-.769-.027c-.249-.193-.303-.479-.148-.844-1.95-2.439-4.51-3.82-7.652-4.15-.093.032-.106.091-.142.13a.664.664 0 01-.696.193.621.621 0 01-.444-.551zM6.358 19.908a.664.664 0 00.767.157c.262-.12.4-.378.36-.676-.036-.286-.265-.476-.651-.534-1.257-2.904-.788-6.472 1.501-9.068 2.301-2.61 5.606-3.338 8.02-2.976.179.356.42.507.738.459a.646.646 0 00.538-.513.63.63 0 00-.34-.67c-.28-.141-.569-.071-.838.194-3.598-.303-6.564.829-8.837 3.578-2.132 2.85-2.514 5.926-1.269 9.226-.193.307-.192.596.011.823zm5.749-1.213c.368.345.806.584 1.249.823 2.064 1.113 4.123 2.235 6.184 3.353.06.031.113.074.195.09l-.02-6.056c.337-.234.448-.478.354-.77a.626.626 0 00-.594-.444.64.64 0 00-.638.415c-.1.285-.02.577.357.811l.017 5.203a15.906 15.906 0 01-.21-.11c-1.916-1.038-3.832-2.073-5.746-3.112a3.851 3.851 0 01-1.801-2.037 3.323 3.323 0 01-.238-1.108c.347-.214.465-.452.379-.758a.642.642 0 00-.6-.466.655.655 0 00-.637.42c-.107.3.002.56.334.79l.034.267c.126 1.058.593 1.951 1.381 2.69zm14.64 9.752a.667.667 0 00-.964-.002c-.294.314-.21.69.23 1.027l.012 3.848-9.136-4.96c-.024-.381-.199-.614-.497-.682a.658.658 0 00-.72.304.618.618 0 00.092.74c.219.227.514.253.88.075l9.832 5.338c.01.006.023.007.036.01.005 0 .011-.003.017-.005l.015-.01-.016-4.666c.43-.329.51-.702.218-1.017zm-17.4-5.593c.515.395 1.092.704 1.67 1.017 3.422 1.852 6.84 3.71 10.26 5.566.359.194.716.39 1.07.582.037.393.207.618.51.684a.655.655 0 00.708-.291.61.61 0 00-.076-.743c-.215-.233-.485-.262-.896-.088a42.74 42.74 0 01-.189-.103l-5.774-3.133-5.843-3.163a8.763 8.763 0 01-1.115-.715c.015-.553-.228-.838-.684-.815a.626.626 0 00-.595.715c.05.406.4.587.955.487zm.402-1.82c.586.552 1.267.971 1.981 1.352 1.666.887 3.32 1.797 4.977 2.698.043.023.094.036.12.079.029.375.203.602.516.672.27.061.563-.065.703-.303a.616.616 0 00-.087-.741c-.215-.229-.507-.256-.884-.078l-1.492-.81c-1.25-.678-2.494-1.37-3.755-2.03-1.718-.898-2.92-2.22-3.58-4.002a6.64 6.64 0 01-.39-1.798c.34-.246.443-.5.333-.796a.632.632 0 00-.635-.415.638.638 0 00-.596.445c-.094.304.028.552.386.784.012.113.021.227.036.341.014.115.032.228.052.342.293 1.665 1.068 3.084 2.315 4.26zm.145-1.77a.67.67 0 00.75.069.625.625 0 00.311-.684c-.072-.308-.306-.467-.73-.495-1.046-1.773-.977-4.268.562-6.114 1.574-1.888 3.999-2.341 5.736-1.881.134.38.328.542.652.542a.635.635 0 00.62-.437.618.618 0 00-.232-.695c-.262-.187-.538-.158-.887.083-2.437-.455-4.503.15-6.173 1.941-1.745 2.13-1.932 4.417-.735 6.856-.154.33-.113.611.126.814zm4.04 7.08a.75.75 0 00-.566.105l-.254-.138c-.963-.521-1.918-1.056-2.89-1.56-2.158-1.121-3.755-2.754-4.788-4.904a9.646 9.646 0 01-.788-2.406c.302-.303.372-.575.223-.848a.661.661 0 00-.675-.327.647.647 0 00-.537.515c-.054.319.094.547.477.733a14.669 14.669 0 01.042.174c.735 3.256 2.592 5.717 5.571 7.374.81.45 1.634.88 2.45 1.321.31.167.617.337.92.502.029.375.194.605.475.676a.67.67 0 00.733-.277.626.626 0 00-.393-.94zm11.151-13.87c.112.184.294.268.494.316a9.71 9.71 0 01.361 2.466c.005.357-.003.714-.001 1.071.009 2.156.019 4.312.03 6.466.004.727.014 1.453.018 2.18.001.174.013.349-.007.516-.328.217-.443.466-.355.754.084.28.325.457.623.457.28 0 .527-.169.615-.421.105-.302-.009-.56-.367-.806l-.002-.858c-.012-2.397-.022-4.796-.036-7.193-.003-.551-.015-1.102 0-1.653.02-.808-.049-1.608-.217-2.4-.052-.248-.112-.495-.166-.735.25-.303.287-.57.116-.822a.664.664 0 00-.718-.27.644.644 0 00-.477.567.607.607 0 00.09.365zm-1.122 18.023a.64.64 0 00.59.455.648.648 0 00.635-.392.614.614 0 00.032-.373c-.049-.217-.202-.353-.397-.465l-.042-12.593c.333-.234.442-.479.342-.778a.648.648 0 00-.62-.44.658.658 0 00-.617.448c-.093.298.018.54.367.781l.077 12.593c-.343.228-.454.464-.367.764zm-.91-15.803c-.29-2.189-1.304-3.986-3.135-5.31-1.83-1.321-3.893-1.758-6.151-1.404-.302-.267-.574-.32-.851-.17a.636.636 0 00-.327.645c.049.28.272.491.564.531a.632.632 0 00.364-.058c.197-.094.302-.26.364-.448 4.271-.778 8.27 2.261 8.64 6.255-.315.236-.412.491-.3.783a.65.65 0 00.623.412.658.658 0 00.614-.476c.076-.304-.054-.548-.405-.76zm-18.317-.526a.614.614 0 00.285-.431c.042-.257-.08-.457-.262-.617.952-4.096 4.395-6.973 7.934-7.734.298.271.576.327.858.17a.62.62 0 00.312-.681.646.646 0 00-.597-.494c-.307-.02-.542.151-.67.475-4.368 1.207-7.16 3.912-8.374 8.166-.45.195-.618.567-.409.93a.662.662 0 00.923.216zm19.13.482a.655.655 0 00.689.33c.277-.052.491-.266.523-.524.042-.331-.098-.544-.468-.714-.618-2.756-2.155-4.847-4.629-6.287-.072-.497-.381-.748-.808-.658a.63.63 0 00-.473.785c.126.418.506.54 1.066.327 2.313 1.36 3.754 3.328 4.334 5.89-.323.326-.386.566-.233.85zm-11.775-2.32c-.383-.06-.655.053-.794.326a.627.627 0 00.121.723.662.662 0 001.036-.146c.1-.182.082-.372.028-.556 1.906-1.743 4.954-1.207 6.158.862-.194.336-.185.61.029.835.19.2.5.259.755.143a.627.627 0 00.366-.657c-.039-.301-.256-.482-.677-.554-1.466-2.402-4.842-2.94-7.022-.976zm2.435 1.03c.307.3.567.363.86.217a.623.623 0 00.348-.648.638.638 0 00-.522-.527c-.341-.053-.555.076-.771.464l-.141.047c-1.153.38-1.933 1.416-1.917 2.595.015 1.09.534 1.904 1.518 2.434l.954.51c.034.392.195.609.497.683a.651.651 0 00.712-.277.612.612 0 00-.049-.73c-.206-.248-.471-.281-.918-.115-.32-.17-.64-.345-.964-.512-.977-.503-1.46-1.573-1.152-2.602.232-.777.763-1.282 1.545-1.54zm-1.052 8.093l5.493 2.982c.033.39.202.614.503.682a.655.655 0 00.71-.285.617.617 0 00-.082-.757c-.217-.227-.49-.253-.886-.078l-5.495-2.982c-.036-.392-.199-.614-.492-.68-.288-.066-.565.039-.715.272a.617.617 0 00.055.744c.21.24.483.272.909.102zm5.592-10.977a.64.64 0 00-.67.653.6.6 0 00.23.46c.204.166.44.178.675.104.784.724 1.422 2.02 1.544 3.092.083.73.003 1.463.044 2.185-.35.235-.464.49-.366.789a.657.657 0 00.606.438.648.648 0 00.632-.449c.096-.294-.018-.541-.362-.779-.001-.384-.015-.77 0-1.157a6.047 6.047 0 00-.322-2.232 5.993 5.993 0 00-1.41-2.248c.065-.507-.173-.839-.6-.856zm.692 16.67a.731.731 0 00.546-.11l2.835 1.537-.01-3.075c.337-.22.452-.468.364-.77a.654.654 0 00-1.232-.033c-.113.302-.007.549.35.814l.008 2.214-2.065-1.121c-.028-.382-.197-.613-.491-.681a.668.668 0 00-.714.28.626.626 0 00.409.944zm-9.261-17.139c.418.12.682.06.865-.194a.625.625 0 00-.014-.747.661.661 0 00-.737-.208c-.298.106-.433.341-.42.749a7.728 7.728 0 00-2.333 3.14c-.387.1-.575.29-.597.594a.62.62 0 00.41.629.66.66 0 00.73-.178c.086-.1.139-.214.152-.344.023-.213-.072-.386-.208-.545a7.197 7.197 0 012.152-2.896zm6.664 9.32a.658.658 0 001.246-.028c.082-.29-.042-.55-.376-.756.013-1.063-.038-2.122.003-3.175.28-.231.363-.5.245-.776a.651.651 0 00-.679-.379.625.625 0 00-.551.493c-.073.32.057.534.46.755l.01 3.08c-.341.236-.456.49-.358.785zm4.623 1.088c-.069-.268-.341-.463-.624-.462a.657.657 0 00-.62.445c-.096.294.025.558.365.78l.01 2.968c-.323.21-.441.465-.354.753.083.275.335.46.624.46.28 0 .542-.187.62-.443.094-.305-.025-.56-.367-.78l-.01-2.971c.343-.183.427-.471.356-.75zm-5.085-3.899c.093-.295-.023-.55-.364-.775.038-.321-.006-.62-.206-.884a1.12 1.12 0 00-.82-.45c-.56-.052-1.159.292-1.254 1.053-.387.334-.268.786-.019.985.29.232.725.184.943-.112a.595.595 0 00.108-.499c-.056-.263-.24-.41-.484-.496.138-.345.447-.508.776-.418.346.094.497.387.43.829-.333.224-.45.484-.349.78.09.261.34.435.625.432a.631.631 0 00.614-.445zm6.755 1.989a.655.655 0 00-.634-.448.657.657 0 00-.609.458c-.068.243-.012.561.37.762l.008 2.277c-.32.204-.442.462-.361.75a.66.66 0 00.602.465.657.657 0 00.63-.404.62.62 0 00.02-.393c-.05-.198-.192-.33-.368-.422l-.008-2.278c.326-.211.444-.474.35-.767z"/><g fill="#2D46C1" clip-path="url(#clip0)"><path d="M30.837 17.004V6.825c0-.551.294-.849.84-.849h4.767c2.064 0 3.725 1.587 3.725 3.774 0 1.587-1.008 2.916-2.542 3.338l2.302 3.447a.877.877 0 01.173.541c0 .511-.41.927-.917.927a.929.929 0 01-.76-.409l-2.768-4.143-2.821.004v3.549c0 .558-.447 1.01-1 1.01-.552 0-1-.452-1-1.01zm5.066-5.14c1.28 0 2.265-.913 2.265-2.112 0-1.188-.974-2.113-2.191-2.113h-3.141v4.224h3.067v.002zM49.998 16.058c.484 0 .88.398.88.888a.885.885 0 01-.88.888h-6.764c-.546 0-.84-.297-.84-.847V6.825c0-.551.294-.849.84-.849h6.588c.484 0 .88.4.88.888a.885.885 0 01-.88.888h-5.335v3.257h5.212c.457 0 .827.375.827.835 0 .46-.372.836-.828.836h-5.211v3.376h5.511v.002zM52.798 17.03V6.53c0-.392.314-.71.703-.71.21 0 .407.084.527.24l5.16 6.584 5.138-6.562a.707.707 0 011.252.448V17.03a1 1 0 01-.994 1.005.999.999 0 01-.994-1.005l.002-7.177-3.932 5.14a.578.578 0 01-.472.225.58.58 0 01-.472-.225l-3.931-5.14.002 7.177a1 1 0 01-.995 1.005 1 1 0 01-.994-1.005zM67.502 11.927c0-3.384 2.827-6.146 6.286-6.146 3.459 0 6.285 2.762 6.285 6.146 0 3.383-2.826 6.145-6.285 6.145-3.46 0-6.286-2.764-6.286-6.145zm10.48 0c0-2.342-1.877-4.238-4.194-4.238-2.318 0-4.194 1.896-4.194 4.238 0 2.34 1.876 4.237 4.194 4.237 2.317 0 4.194-1.896 4.194-4.238zM90.137 6.864a.885.885 0 01-.88.888H86.2v9.206c0 .584-.467 1.057-1.046 1.057a1.051 1.051 0 01-1.047-1.057V7.752h-3.065a.885.885 0 01-.88-.888c0-.488.396-.888.88-.888h8.215c.486.002.88.4.88.888zM99.12 16.058c.485 0 .88.398.88.888a.885.885 0 01-.88.888H92.36c-.546 0-.84-.297-.84-.847V6.825c0-.551.294-.849.84-.849h6.588c.484 0 .879.4.879.888a.885.885 0 01-.88.888H93.61v3.257h5.212c.456 0 .827.375.827.835 0 .46-.371.836-.827.836H93.61v3.376h5.512v.002zM39.56 23.077a.885.885 0 01-.88.888h-3.058v9.204c0 .584-.468 1.057-1.047 1.057a1.05 1.05 0 01-1.046-1.057v-9.206h-3.064a.885.885 0 01-.88-.888c0-.488.396-.888.88-.888h8.215c.484.002.88.401.88.89zM48.543 32.227c.484 0 .88.397.88.888a.885.885 0 01-.88.888h-6.762c-.546 0-.84-.298-.84-.848V22.997c0-.551.294-.849.84-.849h6.588c.484 0 .88.4.88.888a.885.885 0 01-.88.888h-5.337v3.257h5.212c.457 0 .827.375.827.835a.832.832 0 01-.827.836h-5.212v3.376h5.511v-.001zM61.824 33.234c0 .538-.43.978-.966.978a.984.984 0 01-.88-.56l-1.07-2.22h-5.936l-1.072 2.22a.979.979 0 01-.878.56.972.972 0 01-.967-.978c0-.159.036-.308.102-.441L55.35 22.4a.66.66 0 01.59-.37c.263 0 .477.15.59.37l5.19 10.392c.071.133.105.282.105.441zm-3.643-3.31l-2.24-4.642-2.24 4.642h4.48zM63.183 33.161V22.663c0-.392.315-.71.703-.71.211 0 .407.085.527.24l5.16 6.584 5.139-6.562a.706.706 0 011.252.448v10.498a1 1 0 01-.994 1.005 1 1 0 01-.995-1.005l.002-7.177-3.931 5.14a.579.579 0 01-.473.226.58.58 0 01-.472-.225l-3.93-5.141v7.177a1 1 0 01-.994 1.005.998.998 0 01-.994-1.005zM77.603 33.48c0-.368.246-.629.593-.629.346 0 .582.26.582.63 0 .358-.227.629-.592.629-.345 0-.583-.27-.583-.63zM79.31 31.58c0-1.406 1.205-2.557 2.68-2.557.865 0 1.624.421 2.05 1.032.1.13.153.28.153.415a.497.497 0 01-.514.488c-.187 0-.367-.128-.48-.27-.268-.376-.68-.67-1.228-.67-.849 0-1.535.707-1.535 1.561 0 .846.686 1.548 1.535 1.548.548 0 .961-.244 1.23-.633.113-.15.289-.277.476-.277.295 0 .516.211.516.489a.692.692 0 01-.157.414 2.545 2.545 0 01-2.048 1.014c-1.473 0-2.679-1.15-2.679-2.555zM84.8 31.58c0-1.406 1.201-2.557 2.668-2.557 1.471 0 2.672 1.15 2.672 2.556 0 1.406-1.2 2.556-2.672 2.556-1.467 0-2.667-1.15-2.667-2.556zm4.21 0c0-.853-.7-1.555-1.544-1.555-.839 0-1.538.702-1.538 1.554 0 .853.7 1.555 1.538 1.555.844 0 1.544-.702 1.544-1.555zM91.09 33.531V29.59c0-.308.2-.524.544-.524.278 0 .47.142.512.395l.017.597a1.719 1.719 0 011.577-1.035c.75 0 1.318.445 1.574 1.095.298-.7.974-1.095 1.694-1.095 1.285 0 2.091.98 2.091 2.24v2.267c0 .336-.237.581-.564.581-.326 0-.564-.245-.564-.581v-2.245c0-.682-.47-1.244-1.132-1.244-.631 0-1.18.549-1.18 1.284v2.205c0 .336-.238.581-.564.581-.327 0-.565-.245-.565-.581v-2.245c0-.682-.47-1.244-1.131-1.244-.647 0-1.182.587-1.182 1.308v2.18c0 .337-.238.582-.565.582-.326.002-.562-.243-.562-.58z"/></g><defs><clipPath id="clip0"><path fill="#fff" d="M0 0h70.414v28.419H0z" transform="translate(29.586 5.782)"/></clipPath></defs></svg>