<svg width="32" height="31" viewBox="0 0 32 31" fill="none" xmlns="http://www.w3.org/2000/svg">
<ellipse cx="15.9231" cy="15.5" rx="15.9231" ry="15.5" fill="#2DC18C"/>
<mask id="mask0" mask-type="alpha" maskUnits="userSpaceOnUse" x="0" y="0" width="32" height="31">
<ellipse cx="15.9231" cy="15.5" rx="15.9231" ry="15.5" fill="#2D46C1"/>
</mask>
<g mask="url(#mask0)">
<path d="M22.3431 24.2523C20.9533 24.2523 19.7808 23.3571 19.4115 22.1327H16.6385L16.6234 22.1409L13.316 16.6569H11.2941C10.9246 17.8813 9.75229 18.7767 8.36211 18.7767C6.67582 18.7767 5.30859 17.459 5.30859 15.8338C5.30859 14.2084 6.67582 12.8905 8.36211 12.8905C9.75229 12.8905 10.9246 13.7859 11.2941 15.0107H13.2705L13.2961 14.969L16.6234 9.45189L16.6515 9.46785H19.3987C19.7683 8.24304 20.9405 7.34766 22.3303 7.34766C24.017 7.34766 25.3842 8.66554 25.3842 10.2909C25.3842 11.9161 24.017 13.234 22.3303 13.234C20.9405 13.234 19.7683 12.3386 19.3987 11.1138H17.5969L14.7754 15.7919L14.7742 15.7963L14.7752 15.8005L17.6011 20.4863H19.4115C19.7808 19.2615 20.9533 18.3659 22.3431 18.3659C24.0298 18.3659 25.397 19.6838 25.397 21.3092C25.397 22.9346 24.0298 24.2523 22.3431 24.2523Z" fill="#24273F"/>
<path d="M22.3451 19.8365C21.5669 19.8365 20.917 20.3734 20.7715 21.083C20.7292 21.3838 20.7715 21.6836 20.7715 21.6836C20.9172 22.3926 21.5669 22.9292 22.3449 22.9292C23.2296 22.9292 23.9496 22.2359 23.9496 21.383C23.9496 20.5303 23.2296 19.8365 22.3449 19.8365H22.3451ZM8.38964 14.2595C7.50489 14.2595 6.78516 14.953 6.78516 15.8059C6.78516 16.6584 7.50489 17.3522 8.38964 17.3522C9.27458 17.3522 9.99432 16.6584 9.99432 15.8059C9.99432 14.953 9.27458 14.2595 8.38964 14.2595ZM22.3421 11.7753C23.227 11.7753 23.9468 11.0815 23.9468 10.229C23.9468 9.37608 23.227 8.68262 22.3421 8.68262C21.5643 8.68262 20.9144 9.21935 20.7687 9.92877V9.93819C20.7687 9.93819 20.7328 10.2563 20.7687 10.5292C20.9144 11.2386 21.5643 11.7753 22.3421 11.7753Z" fill="#2DC18C"/>
</g>
</svg>
