<svg xmlns="http://www.w3.org/2000/svg" width="32" height="31" fill="none"><path fill="#2DC18C" d="M16 0C7.204 0 .075 6.94.075 15.5.076 24.06 7.206 31 16 31c8.794 0 15.923-6.94 15.923-15.5C31.922 6.94 24.793 0 16 0zm6.33 12.339c.007.136.01.274.01.411 0 4.203-3.286 9.048-9.295 9.048a9.43 9.43 0 01-5.007-1.428c.255.029.515.044.779.044a6.67 6.67 0 004.057-1.361c-1.43-.026-2.636-.945-3.052-2.209a3.352 3.352 0 001.476-.054c-1.495-.292-2.62-1.578-2.62-3.118v-.04c.44.238.944.38 1.48.397a3.157 3.157 0 01-1.454-2.646c0-.583.161-1.13.442-1.6a9.36 9.36 0 006.734 3.323 3.111 3.111 0 01-.085-.724c0-1.756 1.463-3.18 3.267-3.18.94 0 1.788.386 2.384 1.004a6.653 6.653 0 002.075-.772 3.206 3.206 0 01-1.437 1.76 6.67 6.67 0 001.877-.501 6.545 6.545 0 01-1.63 1.646z"/></svg>